<?xml version="1.0" encoding="utf-8"?>
<!-- Generator: Adobe Illustrator 17.0.0, SVG Export Plug-In . SVG Version: 6.00 Build 0)  -->
<!DOCTYPE svg PUBLIC "-//W3C//DTD SVG 1.1//EN" "http://www.w3.org/Graphics/SVG/1.1/DTD/svg11.dtd">
<svg version="1.1" id="Capa_1" xmlns="http://www.w3.org/2000/svg" xmlns:xlink="http://www.w3.org/1999/xlink" x="0px" y="0px"
	 width="76px" height="76px" viewBox="0 0 76 76" style="enable-background:new 0 0 76 76;" xml:space="preserve">
<style type="text/css">
	.st0{fill:#85432A;}
	.st1{fill:#E60000;}
	.st2{fill:none;stroke:#F2F2F2;stroke-width:2;stroke-linecap:round;stroke-linejoin:round;stroke-miterlimit:10;}
	.st3{fill:#F2F2F2;}
	.st4{fill:#FFFFFF;}
	.st5{fill:#F10D13;}
	.st6{fill:none;stroke:#999999;stroke-width:2;stroke-linecap:round;stroke-linejoin:round;stroke-miterlimit:10;}
	.st7{fill:none;stroke:#FFB819;stroke-width:1.5;stroke-linecap:round;stroke-linejoin:round;stroke-miterlimit:10;}
	.st8{fill:#FFB819;}
	.st9{fill:#3FAE2A;}
	.st10{fill:#FDB07C;}
	.st11{fill:#19BBFF;}
	.st12{fill:#FF4D6A;}
	.st13{fill:#A666CE;}
</style>
<g>
	<path class="st11" d="M67,65.5l-6.3-2.6v-5.2c0-0.6-0.5-1.2-1.2-1.2c-0.6,0-1.2,0.5-1.2,1.2v4.3l-3.3-1.3V48.3
		c0-0.6-0.5-1.2-1.2-1.2c-0.6,0-1.2,0.5-1.2,1.2v11.4l-3.3-1.3V46h8.8v2.4c0,0.6,0.5,1.2,1.2,1.2c0.6,0,1.2-0.5,1.2-1.2v-3.6
		c0,0,0,0,0,0c0,0,0,0,0,0v0l0-8.6l6.7-11.7c0.3-0.5,0.4-1,0.4-1.6c0-1.4-0.8-2.6-2.2-3c-1.3-0.4-2.7,0-3.5,1.1l-1.8,2.3
		c0,0,0-0.1,0-0.1v-0.5c0-3.5-2.8-6.3-6.3-6.3c-0.5,0-1,0.1-1.4,0.2l-3-2.9l3.4-3.4c0.3-0.3,0.4-0.8,0.3-1.3
		c-0.2-0.4-0.6-0.7-1.1-0.7H41.8c-0.6,0-1.2,0.5-1.2,1.2v2.3H38c-0.6,0-1.2,0.5-1.2,1.2v16c-0.3-0.1-0.7-0.2-1.1-0.2h-8.8
		c0.9-1.1,1.4-2.5,1.4-3.9v-1.4c0,0,0-0.1,0-0.1c0,0,0-0.1,0-0.1v-0.5c0-3.5-2.8-6.3-6.3-6.3c-3.5,0-6.3,2.8-6.3,6.3v0.5
		c0,0,0,0.1,0,0.1c0,0,0,0,0,0L13.9,21c-0.8-1.1-2.2-1.5-3.5-1.1c-1.3,0.4-2.2,1.6-2.2,3c0,0.5,0.1,1.1,0.4,1.6l6.7,11.7l0,26.6
		L9,65.5c-0.6,0.2-0.9,0.9-0.6,1.5c0.2,0.4,0.6,0.7,1.1,0.7c0.1,0,0.3,0,0.4-0.1L38,56.1l28.1,11.6c0.6,0.2,1.3,0,1.5-0.6
		C67.9,66.4,67.6,65.7,67,65.5 M63.9,22.5C63.9,22.5,63.9,22.4,63.9,22.5c0.4-0.5,0.8-0.4,1-0.3c0.1,0,0.6,0.2,0.6,0.8
		c0,0.1,0,0.3-0.1,0.4l-6.8,12c-0.1,0.2-0.2,0.4-0.2,0.6l0,7.7h-8.8l0-8.1c0-0.6-0.4-1.1-1-1.1l-8.4-1.2c-0.5-0.1-0.9-0.5-0.9-1.1
		c0-0.6,0.5-1.1,1.1-1.1h10.4l2.2,7c0.2,0.5,0.6,0.8,1.1,0.8c0.5,0,1-0.3,1.1-0.8l2.4-7.6L63.9,22.5z M39.2,22.2h6.5
		c0.6,0,1.2-0.5,1.2-1.2V19h2.1c-0.8,1-1.2,2.3-1.2,3.7v0.5c0,0,0,0,0,0c0,0.1,0,0.1,0,0.2v1.4c0,1.5,0.5,2.9,1.4,3.9h-8.8
		c-0.4,0-0.7,0.1-1.1,0.2V22.2z M54.8,31l-0.9,2.8L53.1,31H54.8z M57.9,24.8c0,2.2-1.8,3.9-3.9,3.9c-2.2,0-3.9-1.8-3.9-3.9v-0.5
		l0.4,0c0.9,0,1.8-0.5,2.3-1.1c1.1,0.8,2.5,1.2,3.8,1.2h1.3V24.8z M54,18.7c2,0,3.6,1.4,3.9,3.3h-1.3c-1.3,0-2.6-0.6-3.4-1.6
		c-0.2-0.3-0.6-0.4-0.9-0.4c-0.1,0-0.3,0-0.4,0.1c-0.5,0.2-0.8,0.6-0.8,1.1c0,0.4-0.3,0.8-0.8,0.8l-0.3,0C50.4,20.1,52,18.7,54,18.7
		 M43,10.6h6.4l-2.3,2.3c-0.2,0.2-0.3,0.5-0.3,0.8c0,0.3,0.1,0.6,0.4,0.8l2.2,2.1H43V10.6z M41.8,19h2.7v0.9h-5.3v-5.8h1.5v3.7
		C40.7,18.4,41.2,19,41.8,19 M22.1,28.7c-2.2,0-3.9-1.8-3.9-3.9v-0.4h1.3c1.4,0,2.7-0.4,3.8-1.2c0.5,0.7,1.4,1.1,2.3,1.1l0.4,0v0.5
		C26,26.9,24.2,28.7,22.1,28.7 M22.9,31l-0.9,2.8L21.2,31H22.9z M22.1,18.7c1.9,0,3.6,1.4,3.9,3.3l-0.3,0c-0.4,0-0.8-0.4-0.8-0.8
		c0-0.5-0.3-0.9-0.8-1.1c-0.5-0.2-1,0-1.3,0.3c-0.8,1-2.1,1.6-3.4,1.6h-1.3C18.5,20.1,20.1,18.7,22.1,18.7 M10.7,23.4
		c-0.1-0.1-0.1-0.3-0.1-0.4c0-0.6,0.4-0.8,0.6-0.8c0.1,0,0.6-0.2,0.9,0.3c0,0,0,0,0,0l6.5,8L21,38c0.2,0.5,0.6,0.8,1.1,0.8
		c0.5,0,1-0.3,1.1-0.8l2.2-7h10.4c0.6,0,1.1,0.5,1.1,1.1c0,0.5-0.4,1-0.9,1.1l-8.4,1.2c-0.6,0.1-1,0.6-1,1.1l0,8.1h-8.8l0-7.7
		c0-0.2-0.1-0.4-0.2-0.6L10.7,23.4z M22.1,47.1c-0.6,0-1.2,0.5-1.2,1.2v12.3l-3.3,1.3V46h8.8v12.3l-3.3,1.3V48.3
		C23.2,47.6,22.7,47.1,22.1,47.1 M37.6,53.7l-8.8,3.6V44.9c0,0,0-8.3,0-8.3l7.4-1.1c0.2,0,0.4-0.1,0.6-0.1v10.2
		c0,0.6,0.5,1.2,1.2,1.2c0.6,0,1.2-0.5,1.2-1.2V35.3c0.2,0.1,0.4,0.1,0.6,0.1l7.4,1.1l0,8.3v0c0,0,0,0,0,0c0,0,0,0,0,0v12.5
		l-8.8-3.6C38.2,53.6,37.8,53.6,37.6,53.7"/>
</g>
</svg>
