<?xml version="1.0" encoding="utf-8"?>
<!-- Generator: Adobe Illustrator 17.0.0, SVG Export Plug-In . SVG Version: 6.00 Build 0)  -->
<!DOCTYPE svg PUBLIC "-//W3C//DTD SVG 1.1//EN" "http://www.w3.org/Graphics/SVG/1.1/DTD/svg11.dtd">
<svg version="1.1" id="Capa_1" xmlns="http://www.w3.org/2000/svg" xmlns:xlink="http://www.w3.org/1999/xlink" x="0px" y="0px"
	 width="76px" height="76px" viewBox="0 0 76 76" style="enable-background:new 0 0 76 76;" xml:space="preserve">
<style type="text/css">
	.st0{fill:#85432A;}
	.st1{fill:#E60000;}
	.st2{fill:none;stroke:#F2F2F2;stroke-width:2;stroke-linecap:round;stroke-linejoin:round;stroke-miterlimit:10;}
	.st3{fill:#F2F2F2;}
	.st4{fill:#FFFFFF;}
</style>
<path class="st3" d="M38,7C20.9,7,7,20.9,7,38s13.9,31,31,31c17.1,0,31-13.9,31-31S55.1,7,38,7z M46.7,30.1h-3.2c-2.5,0-3,1.1-3,2.8
	v3.7h5.9l-0.8,5.8h-5.1v14.9h-6.2V42.4h-5.2v-5.8h5.2v-4.3c0-5,3.1-7.7,7.7-7.7c2.2,0,4.1,0.2,4.6,0.2V30.1z"/>
</svg>
