<?xml version="1.0" encoding="utf-8"?>
<!-- Generator: Adobe Illustrator 17.0.0, SVG Export Plug-In . SVG Version: 6.00 Build 0)  -->
<!DOCTYPE svg PUBLIC "-//W3C//DTD SVG 1.1//EN" "http://www.w3.org/Graphics/SVG/1.1/DTD/svg11.dtd">
<svg version="1.1" id="Capa_1" xmlns="http://www.w3.org/2000/svg" xmlns:xlink="http://www.w3.org/1999/xlink" x="0px" y="0px"
	 width="76px" height="76px" viewBox="0 0 76 76" style="enable-background:new 0 0 76 76;" xml:space="preserve">
<style type="text/css">
	.st0{fill:#85432A;}
	.st1{fill:#E60000;}
	.st2{fill:none;stroke:#F2F2F2;stroke-width:2;stroke-linecap:round;stroke-linejoin:round;stroke-miterlimit:10;}
	.st3{fill:#F2F2F2;}
	.st4{fill:#FFFFFF;}
	.st5{fill:#F10D13;}
	.st6{fill:none;stroke:#999999;stroke-width:2.5;stroke-linecap:round;stroke-linejoin:round;stroke-miterlimit:10;}
	.st7{fill:none;stroke:#FFB819;stroke-width:1.5;stroke-linecap:round;stroke-linejoin:round;stroke-miterlimit:10;}
	.st8{fill:#FFB819;}
	.st9{fill:#3FAE2A;}
	.st10{fill:#FDB07C;}
	.st11{fill:#19BBFF;}
	.st12{fill:#FF4D6A;}
	.st13{fill:#A666CE;}
</style>
<g>
	<circle class="st6" cx="38" cy="31.4" r="23.7"/>
	<circle class="st6" cx="38" cy="31.4" r="3.1"/>
	<rect x="27.3" y="63.7" class="st6" width="21.5" height="4.5"/>
	<polyline class="st6" points="33.7,54.7 33.7,63.7 42.3,63.7 42.3,54.7 	"/>
	<line class="st6" x1="38" y1="16.4" x2="38" y2="19.8"/>
	<line class="st6" x1="36.3" y1="43.6" x2="39.7" y2="43.6"/>
	<line class="st6" x1="27.4" y1="20.8" x2="29.8" y2="23.2"/>
	<line class="st6" x1="23" y1="31.4" x2="26.4" y2="31.4"/>
	<line class="st6" x1="27.4" y1="42" x2="29.8" y2="39.6"/>
	<line class="st6" x1="48.6" y1="42" x2="46.2" y2="39.6"/>
	<line class="st6" x1="53" y1="31.4" x2="49.6" y2="31.4"/>
	<line class="st6" x1="48.6" y1="20.8" x2="46.2" y2="23.2"/>
	<path class="st6" d="M27.4,42c-2.7-2.7-4.4-6.5-4.4-10.6c0-8.3,6.7-15,15-15s15,6.7,15,15c0,4.1-1.7,7.9-4.4,10.6"/>
	<line class="st6" x1="39.1" y1="28.5" x2="41.6" y2="22.6"/>
</g>
</svg>
