<?xml version="1.0" encoding="utf-8"?>
<!-- Generator: Adobe Illustrator 17.0.0, SVG Export Plug-In . SVG Version: 6.00 Build 0)  -->
<!DOCTYPE svg PUBLIC "-//W3C//DTD SVG 1.1//EN" "http://www.w3.org/Graphics/SVG/1.1/DTD/svg11.dtd">
<svg version="1.1" id="Capa_1" xmlns="http://www.w3.org/2000/svg" xmlns:xlink="http://www.w3.org/1999/xlink" x="0px" y="0px"
	 width="76px" height="76px" viewBox="0 0 76 76" style="enable-background:new 0 0 76 76;" xml:space="preserve">
<style type="text/css">
	.st0{fill:#85432A;}
	.st1{fill:#E60000;}
	.st2{fill:none;stroke:#F2F2F2;stroke-width:2;stroke-linecap:round;stroke-linejoin:round;stroke-miterlimit:10;}
	.st3{fill:#F2F2F2;}
	.st4{fill:#FFFFFF;}
	.st5{fill:#F10D13;}
	.st6{fill:none;stroke:#999999;stroke-width:2.5;stroke-linecap:round;stroke-linejoin:round;stroke-miterlimit:10;}
	.st7{fill:none;stroke:#FFB819;stroke-width:1.5;stroke-linecap:round;stroke-linejoin:round;stroke-miterlimit:10;}
	.st8{fill:#FFB819;}
	.st9{fill:#3FAE2A;}
	.st10{fill:#FDB07C;}
	.st11{fill:#19BBFF;}
	.st12{fill:#FF4D6A;}
	.st13{fill:#A666CE;}
</style>
<g>
	<polyline class="st6" points="11.3,49.3 3.8,49.3 3.8,17.8 52.7,17.8 52.7,49.3 17.9,49.3 	"/>
	<circle class="st6" cx="14.6" cy="53.2" r="5.1"/>
	<circle class="st6" cx="61.3" cy="53.2" r="5.1"/>
	<path class="st6" d="M64.6,49.3H71v-7.5c0-2.7-2.5-4.9-2.5-4.9L66,27.5c0,0-0.8-3.8-4.1-3.8h-9.2v25.6h5.4"/>
	<polyline class="st6" points="68.6,36.9 57.4,36.9 57.4,27.5 66,27.5 	"/>
	<line class="st6" x1="71" y1="45.7" x2="68.6" y2="45.7"/>
	<line class="st6" x1="3.8" y1="39.4" x2="45.6" y2="39.4"/>
	<polyline class="st6" points="42,35.8 45.6,39.4 42,43 	"/>
	<path class="st6" d="M39.1,49.3v3.6c0,0.8,0.7,1.5,1.5,1.5h9.2c0.8,0,1.5-0.7,1.5-1.5v-3.6"/>
	<polyline class="st6" points="71,49.3 72.2,49.3 72.2,53.2 66.4,53.2 	"/>
	<line class="st6" x1="56.3" y1="53.2" x2="51.2" y2="53.2"/>
	<line class="st6" x1="39.1" y1="53.2" x2="19.7" y2="53.2"/>
	<line class="st6" x1="9.6" y1="53.2" x2="5.8" y2="53.2"/>
</g>
</svg>
