<?xml version="1.0" encoding="utf-8"?>
<!-- Generator: Adobe Illustrator 17.0.0, SVG Export Plug-In . SVG Version: 6.00 Build 0)  -->
<!DOCTYPE svg PUBLIC "-//W3C//DTD SVG 1.1//EN" "http://www.w3.org/Graphics/SVG/1.1/DTD/svg11.dtd">
<svg version="1.1" id="Capa_1" xmlns="http://www.w3.org/2000/svg" xmlns:xlink="http://www.w3.org/1999/xlink" x="0px" y="0px"
	 width="76px" height="76px" viewBox="0 0 76 76" style="enable-background:new 0 0 76 76;" xml:space="preserve">
<style type="text/css">
	.st0{fill:#85432A;}
	.st1{fill:#E60000;}
	.st2{fill:none;stroke:#F2F2F2;stroke-width:2;stroke-linecap:round;stroke-linejoin:round;stroke-miterlimit:10;}
	.st3{fill:#F2F2F2;}
	.st4{fill:#FFFFFF;}
	.st5{fill:#F10D13;}
</style>
<path class="st3" d="M73.5,59L51.7,37.2c-1.5-1.5-4-1.5-5.6,0l-8.1,8.1L29.9,37c-0.3-0.3-0.6-0.5-1-0.7V15.9c0-0.2,0.2-0.4,0.4-0.4
	H44c0.2,0,0.4,0.2,0.4,0.4v9.7c0,0.2-0.2,0.4-0.4,0.4H33.2c-1,0-1.8,0.8-1.8,1.8s0.8,1.8,1.8,1.8H44c2.2,0,3.9-1.8,3.9-3.9v-9.7
	c0-2.2-1.8-3.9-3.9-3.9H29.3c-2.2,0-3.9,1.8-3.9,3.9v20.4c-0.4,0.2-0.7,0.4-1,0.7L2.5,58.9c-0.7,0.7-0.7,1.8,0,2.5
	c0.7,0.7,1.8,0.7,2.5,0l21.8-21.8c0.2-0.2,0.4-0.2,0.6,0l24,24c0.3,0.3,0.8,0.5,1.2,0.5c0.5,0,0.9-0.2,1.2-0.5
	c0.7-0.7,0.7-1.8,0-2.5L40.5,47.7l8.1-8.1c0.2-0.2,0.4-0.2,0.6,0L71,61.5c0.3,0.3,0.8,0.5,1.2,0.5s0.9-0.2,1.2-0.5
	C74.2,60.8,74.2,59.7,73.5,59z"/>
</svg>
