<?xml version="1.0" encoding="utf-8"?>
<!-- Generator: Adobe Illustrator 17.0.0, SVG Export Plug-In . SVG Version: 6.00 Build 0)  -->
<!DOCTYPE svg PUBLIC "-//W3C//DTD SVG 1.1//EN" "http://www.w3.org/Graphics/SVG/1.1/DTD/svg11.dtd">
<svg version="1.1" id="Capa_1" xmlns="http://www.w3.org/2000/svg" xmlns:xlink="http://www.w3.org/1999/xlink" x="0px" y="0px"
	 width="76px" height="76px" viewBox="0 0 76 76" style="enable-background:new 0 0 76 76;" xml:space="preserve">
<style type="text/css">
	.st0{fill:#85432A;}
	.st1{fill:#E60000;}
	.st2{fill:none;stroke:#F2F2F2;stroke-width:2;stroke-linecap:round;stroke-linejoin:round;stroke-miterlimit:10;}
	.st3{fill:#F2F2F2;}
	.st4{fill:#FFFFFF;}
	.st5{fill:#F10D13;}
</style>
<g>
	<path class="st3" d="M51.8,19.8c1.1,0,2,0.9,2,2c0,1.1-0.9,2-2,2c-1.1,0-2-0.9-2-2C49.8,20.7,50.7,19.8,51.8,19.8z"/>
	<path class="st3" d="M68.1,37.1l-3.8-10.3c3.3-1.7,5.5-5.1,5.5-9c0-1.1-0.9-2-2-2h-8c-0.6-0.8-1.4-1.6-2.2-2.2
		c1.2-5.1-2.7-9.9-7.8-9.9c-2.9,0-5.6,1.6-7,4.1c-4.8-0.6-9,3.1-9,7.9c0,4.4,3.6,8,8,8v10.3c0,1.1-0.9,2-2,2c-0.7,0-16.9,0-17.6,0
		l0,0c-0.8,0-1.5-0.4-1.8-1.1L18.9,32c-1.2-2.4-3.6-3.8-6.2-3.8c-3.8,0-7,3.1-7,7v3.1c0,8.4,2.4,16.7,6.5,23
		c4.6,6.8,11.2,11.1,19.5,11.1h11.9c9,0,17.5-3.2,22.5-10.4C71.2,54.6,71.2,45.5,68.1,37.1z M65.5,19.8c-0.5,1.3-1.4,2.4-2.6,3.2
		l-1.2-3.2H65.5z M37.8,15.8c0-2.8,2.9-4.8,5.5-3.7c1.1,0.4,2.4-0.2,2.7-1.3c0.5-1.7,2.1-3,3.9-3c2.3,0,4.1,1.9,4,4.2
		c-0.7-0.1-1.3-0.2-2-0.2c-4.8,0-8.9,3.4-9.8,8C39.7,19.9,37.8,18.1,37.8,15.8z M62.9,59.5c-3.9,5.6-10.7,8.7-19.3,8.7H31.8
		c-8.2,0-13.3-5.1-16.2-9.3c-3.7-5.6-5.9-13.1-5.9-20.7v-3.1c0-1.6,1.3-2.9,2.9-2.9c1.1,0,2.1,0.6,2.6,1.6l1.5,3.1
		c0.4,0.9,1.1,1.6,1.8,2.2c-0.6,0.9-0.9,2-0.9,3.2c0,2.8,1.9,5.1,4.4,5.8c-0.3,0.7-0.4,1.4-0.4,2.2c0,2.8,1.9,5.1,4.4,5.8
		c-0.3,0.7-0.4,1.4-0.4,2.2c0,3.3,2.7,6,6,6h4c9.9,0,18-8.1,18-18c0-1.1-0.9-2-2-2c-1.1,0-2,0.9-2,2c0,7.7-6.3,14-14,14h-4
		c-1.1,0-2-0.9-2-2c0-1.1,0.9-2,2-2h4c1.1,0,2-0.9,2-2c0-1.1-0.9-2-2-2c-0.8,0-7.2,0-8,0c-1.1,0-2-0.9-2-2c0-1.1,0.9-2,2-2
		c0.8,0,7.2,0,8,0c1.1,0,2-0.9,2-2c0-1.1-0.9-2-2-2c-1.3,0-10.7,0-12,0c-1.1,0-2-0.9-2-2c0-1.1,0.9-2,2-2c0.7,0,15.3,0,16,0
		c3.3,0,6-2.7,6-6V21.8c0-3.3,2.7-6,6-6c2.1,0,4.1,1.2,5.2,3c0.6,1.2-0.3-1.2,7.3,19.6C67.3,46.4,66.8,53.9,62.9,59.5z"/>
</g>
</svg>
