<?xml version="1.0" encoding="utf-8"?>
<!-- Generator: Adobe Illustrator 17.0.0, SVG Export Plug-In . SVG Version: 6.00 Build 0)  -->
<!DOCTYPE svg PUBLIC "-//W3C//DTD SVG 1.1//EN" "http://www.w3.org/Graphics/SVG/1.1/DTD/svg11.dtd">
<svg version="1.1" id="Capa_1" xmlns="http://www.w3.org/2000/svg" xmlns:xlink="http://www.w3.org/1999/xlink" x="0px" y="0px"
	 width="76px" height="76px" viewBox="0 0 76 76" style="enable-background:new 0 0 76 76;" xml:space="preserve">
<style type="text/css">
	.st0{fill:#85432A;}
	.st1{fill:#E60000;}
	.st2{fill:none;stroke:#F2F2F2;stroke-width:2;stroke-linecap:round;stroke-linejoin:round;stroke-miterlimit:10;}
	.st3{fill:#F2F2F2;}
	.st4{fill:#FFFFFF;}
	.st5{fill:#F10D13;}
	.st6{fill:none;stroke:#999999;stroke-width:2.5;stroke-linecap:round;stroke-linejoin:round;stroke-miterlimit:10;}
	.st7{fill:none;stroke:#FFB819;stroke-width:1.5;stroke-linecap:round;stroke-linejoin:round;stroke-miterlimit:10;}
	.st8{fill:#FFB819;}
	.st9{fill:#3FAE2A;}
	.st10{fill:#FDB07C;}
	.st11{fill:#19BBFF;}
	.st12{fill:#FF4D6A;}
	.st13{fill:#A666CE;}
</style>
<g>
	<path class="st6" d="M57.4,68.5c-12.9-1.3-25.9-1.3-38.9,0c-2.6,0.3-4.6-1.7-4.4-4.3c1.8-17.6,1.8-34.8,0-52.4
		c-0.3-2.6,1.8-4.6,4.4-4.3c12.9,1.3,25.9,1.3,38.9,0c2.6-0.3,4.6,1.7,4.4,4.3c-0.2,2.2-0.4,4.4-0.6,6.6c-1.2,15.3-1,30.4,0.6,45.8
		C62.1,66.8,60,68.8,57.4,68.5z"/>
	<path class="st6" d="M21.2,20.7c11.1,1.1,22.4,1.1,33.5,0"/>
	<path class="st6" d="M42.2,48.8h-8.5c-2.4,0-4.3-1.9-4.3-4.3c0-2.4,1.9-4.3,4.3-4.3h8.5c2.4,0,4.3,1.9,4.3,4.3
		C46.6,46.8,44.6,48.8,42.2,48.8z"/>
	<line class="st6" x1="42.2" y1="44.4" x2="42.2" y2="44.4"/>
	<line class="st6" x1="33.8" y1="44.4" x2="33.8" y2="44.4"/>
	<line class="st6" x1="40.2" y1="35.9" x2="40.2" y2="35.9"/>
	<line class="st6" x1="35.8" y1="35.9" x2="35.8" y2="35.9"/>
	<path class="st6" d="M44.5,40.8c0,0-0.1-10.4-6.5-10.4c-6.3,0-6.5,10.4-6.5,10.4"/>
	<path class="st6" d="M34,32.4l-7.7,1.3c0,0,0,3.7,5.7,3.7"/>
	<path class="st6" d="M42,32.4l7.7,1.3c0,0,0,3.7-5.7,3.7"/>
	<path class="st6" d="M44.5,27.2c0,1.7-2.9,3.1-6.5,3.1c-3.6,0-6.5-1.4-6.5-3.1"/>
	<line class="st6" x1="30.8" y1="13.3" x2="30.8" y2="16.5"/>
	<line class="st6" x1="23.1" y1="12.8" x2="23.1" y2="16"/>
	<line class="st6" x1="46.3" y1="13.3" x2="46.3" y2="16.5"/>
	<line class="st6" x1="54" y1="12.8" x2="54" y2="16"/>
	<line class="st6" x1="38.5" y1="13.5" x2="38.5" y2="16.7"/>
	<path class="st6" d="M54.7,55.3c-11.1-1.1-22.4-1.1-33.5,0"/>
	<line class="st6" x1="45.2" y1="62.7" x2="45.2" y2="59.5"/>
	<line class="st6" x1="52.9" y1="63.2" x2="52.9" y2="60"/>
	<line class="st6" x1="29.7" y1="62.7" x2="29.7" y2="59.5"/>
	<line class="st6" x1="21.9" y1="63.2" x2="21.9" y2="60"/>
	<line class="st6" x1="37.4" y1="62.5" x2="37.4" y2="59.3"/>
</g>
</svg>
