<?xml version="1.0" encoding="utf-8"?>
<!-- Generator: Adobe Illustrator 17.0.0, SVG Export Plug-In . SVG Version: 6.00 Build 0)  -->
<!DOCTYPE svg PUBLIC "-//W3C//DTD SVG 1.1//EN" "http://www.w3.org/Graphics/SVG/1.1/DTD/svg11.dtd">
<svg version="1.1" id="Capa_1" xmlns="http://www.w3.org/2000/svg" xmlns:xlink="http://www.w3.org/1999/xlink" x="0px" y="0px"
	 width="76px" height="76px" viewBox="0 0 76 76" style="enable-background:new 0 0 76 76;" xml:space="preserve">
<style type="text/css">
	.st0{fill:#85432A;}
	.st1{fill:#E60000;}
	.st2{fill:none;stroke:#F2F2F2;stroke-width:2;stroke-linecap:round;stroke-linejoin:round;stroke-miterlimit:10;}
</style>
<g>
	<path class="st2" d="M54.9,63.1l4.4-4.4c1.7-1.7,1.6-4.6-0.4-6.1L52,47.3c-1.5-1.2-3.6-1.1-5,0l-1.5,1.2c-1.6,1.3-4,1.1-5.4-0.3
		L27.9,36c-1.5-1.5-1.6-3.8-0.3-5.4l1.2-1.5c1.2-1.5,1.2-3.6,0-5l-5.3-6.8c-1.5-1.9-4.4-2.1-6.1-0.4L13,21.2c-3,3-3,11.4,13.7,28.1
		C43.5,66,52.1,65.8,54.9,63.1z"/>
	<path class="st2" d="M64.5,37c0-14.1-11.4-25.5-25.5-25.5"/>
	<path class="st2" d="M39,17.6c10.7,0,19.4,8.7,19.4,19.4"/>
	<path class="st2" d="M39,23.8c7.3,0,13.2,5.9,13.2,13.2"/>
	<path class="st2" d="M39,29.9c3.9,0,7.1,3.2,7.1,7.1"/>
</g>
</svg>
