<?xml version="1.0" encoding="utf-8"?>
<!-- Generator: Adobe Illustrator 17.0.0, SVG Export Plug-In . SVG Version: 6.00 Build 0)  -->
<!DOCTYPE svg PUBLIC "-//W3C//DTD SVG 1.1//EN" "http://www.w3.org/Graphics/SVG/1.1/DTD/svg11.dtd">
<svg version="1.1" id="Capa_1" xmlns="http://www.w3.org/2000/svg" xmlns:xlink="http://www.w3.org/1999/xlink" x="0px" y="0px"
	 width="76px" height="76px" viewBox="0 0 76 76" style="enable-background:new 0 0 76 76;" xml:space="preserve">
<style type="text/css">
	.st0{fill:#85432A;}
	.st1{fill:#E60000;}
	.st2{fill:none;stroke:#F2F2F2;stroke-width:2;stroke-linecap:round;stroke-linejoin:round;stroke-miterlimit:10;}
	.st3{fill:#F2F2F2;}
	.st4{fill:#FFFFFF;}
	.st5{fill:#F10D13;}
</style>
<g>
	<path class="st3" d="M65.5,18.4c-2.3-0.9-3.5-1.1-6.8-1.1h-0.6c0.7-3,0.7-5.9-0.1-8.2c-0.5-1.4-1.4-3.4-3.8-4.1L54,5
		c-2.8-0.4-4.4,2.7-5.8,5.6c-1,2.1-2.1,4.4-3.9,6.8H31.8c-1.9-2.4-3-4.7-3.9-6.8c-1.3-2.9-3-5.9-5.8-5.6l-0.2,0
		c-2.5,0.7-3.4,2.6-3.8,4.1c-0.8,2.4-0.8,5.3-0.1,8.2h-0.6c-3.3,0-5,0.3-6.8,1.1c-3.1,1.6-5.2,4.8-5.2,8.5v5.9h5.9
		c2.4,0,4.6-0.9,6.3-2.4l1.4,27.9C19.3,65.4,25.2,71,32.3,71h11.4c7.1,0,13-5.6,13.4-12.7l1.4-27.9c1.7,1.5,3.9,2.4,6.3,2.4h5.9
		v-5.9C70.7,23.2,68.6,20,65.5,18.4z M16.9,23.2c0,3.2-2.6,5.7-5.7,5.7h-2v-2c0-3.2,2.6-5.7,5.7-5.7h2V23.2z M51.2,12
		c1.5-3.1,2.2-3.6,2.3-3.7c0.6,0.2,1,0.6,1.4,1.8c0.6,2,0.6,4.6-0.2,7.2h-6.4C49.6,15.4,50.4,13.5,51.2,12z M21.1,10.1
		c0.4-1.2,0.8-1.6,1.4-1.8c0.2,0.1,0.9,0.6,2.3,3.7c0.7,1.6,1.6,3.4,2.9,5.4h-6.4C20.6,14.7,20.5,12.1,21.1,10.1z M53.2,58.1
		c-0.3,5.1-4.5,9.1-9.6,9.1H32.3c-5.1,0-9.3-4-9.6-9.1l-0.2-3.3c4-4.3,9.6-6.7,15.4-6.7c5.9,0,11.4,2.4,15.4,6.7L53.2,58.1z
		 M53.7,49.8c-4.4-3.6-9.9-5.5-15.7-5.5c-5.8,0-11.3,2-15.7,5.5l-1.5-28.6h34.3L53.7,49.8z M66.9,29h-2c-3.2,0-5.7-2.6-5.7-5.7v-2h2
		c3.2,0,5.7,2.6,5.7,5.7V29z"/>
	<path class="st3" d="M31.6,58.3c-1.4,0-2.6,1.1-2.6,2.5s1.1,2.5,2.6,2.5c1.4,0,2.6-1.1,2.6-2.5S33,58.3,31.6,58.3z"/>
	<path class="st3" d="M44.4,58.3c-1.4,0-2.6,1.1-2.6,2.5s1.1,2.5,2.6,2.5c1.4,0,2.6-1.1,2.6-2.5S45.8,58.3,44.4,58.3z"/>
	<path class="st3" d="M27.8,37.1c1.4,0,2.6-1.1,2.6-2.5S29.2,32,27.8,32c-1.4,0-2.6,1.1-2.6,2.5S26.4,37.1,27.8,37.1z"/>
	<path class="st3" d="M48.2,37.1c1.4,0,2.6-1.1,2.6-2.5S49.6,32,48.2,32c-1.4,0-2.6,1.1-2.6,2.5S46.8,37.1,48.2,37.1z"/>
</g>
</svg>
