<?xml version="1.0" encoding="utf-8"?>
<!-- Generator: Adobe Illustrator 17.0.0, SVG Export Plug-In . SVG Version: 6.00 Build 0)  -->
<!DOCTYPE svg PUBLIC "-//W3C//DTD SVG 1.1//EN" "http://www.w3.org/Graphics/SVG/1.1/DTD/svg11.dtd">
<svg version="1.1" id="Capa_1" xmlns="http://www.w3.org/2000/svg" xmlns:xlink="http://www.w3.org/1999/xlink" x="0px" y="0px"
	 width="76px" height="76px" viewBox="0 0 76 76" style="enable-background:new 0 0 76 76;" xml:space="preserve">
<style type="text/css">
	.st0{fill:#85432A;}
	.st1{fill:#E60000;}
	.st2{fill:none;stroke:#F2F2F2;stroke-width:2;stroke-linecap:round;stroke-linejoin:round;stroke-miterlimit:10;}
	.st3{fill:#F2F2F2;}
	.st4{fill:#FFFFFF;}
	.st5{fill:#F10D13;}
	.st6{fill:none;stroke:#999999;stroke-width:2;stroke-linecap:round;stroke-linejoin:round;stroke-miterlimit:10;}
	.st7{fill:none;stroke:#FFB819;stroke-width:1.5;stroke-linecap:round;stroke-linejoin:round;stroke-miterlimit:10;}
	.st8{fill:#FFB819;}
	.st9{fill:#3FAE2A;}
	.st10{fill:#FDB07C;}
	.st11{fill:#19BBFF;}
	.st12{fill:#FF4D6A;}
	.st13{fill:#A666CE;}
</style>
<g>
	<path class="st10" d="M72.6,25.1c0-0.3-0.1-0.5-0.3-0.7l-1.2-1.2c-0.4-0.4-1-0.4-1.4,0c-0.4,0.4-0.4,1,0,1.4l0.5,0.5l-3.5,3.5
		L55.8,17.8l3.5-3.5l7.7,7.7c0.2,0.2,0.5,0.3,0.7,0.3c0.3,0,0.5-0.1,0.7-0.3c0.4-0.4,0.4-1,0-1.4l-8.4-8.4c-0.4-0.4-1-0.4-1.4,0
		l-4.2,4.2l-0.1-0.1c-0.5-0.5-1.1-0.7-1.8-0.7c-0.7,0-1.3,0.3-1.8,0.7l-3.4,3.4c-0.5,0.5-0.7,1.1-0.7,1.8c0,0.3,0,0.6,0.1,0.8
		L39.6,22c-0.3,0-0.6,0.1-0.8,0.3l-3.3,3.3l-6.4-0.8c0.4-0.9,0.3-2.1-0.5-2.9l-3.4-3.4c-0.5-0.5-1.1-0.7-1.8-0.7
		c-0.7,0-1.3,0.3-1.8,0.7l-0.1,0.1l-4.2-4.2c-0.4-0.4-1-0.4-1.4,0l-1.7,1.7c-0.4,0.4-0.4,1,0,1.4c0.4,0.4,1,0.4,1.4,0l0.9-0.9
		l3.5,3.5L9.3,30.9l-3.5-3.5l7.2-7.2c0.4-0.4,0.4-1,0-1.4c-0.4-0.4-1-0.4-1.4,0l-7.9,7.9c-0.4,0.4-0.4,1,0,1.4l4.2,4.2l-0.1,0.1
		c-0.5,0.5-0.7,1.1-0.7,1.8c0,0.7,0.3,1.3,0.7,1.8l3.4,3.4c0.5,0.5,1.1,0.7,1.8,0.7c0.3,0,0.5,0,0.7-0.1l6.5,6.5
		c-0.5,0.6-0.8,1.4-0.8,2.3c0,1,0.4,1.9,1.1,2.6l0.1,0.1c0.7,0.7,1.6,1.1,2.6,1.1c0,0,0,0,0,0c0,0.9,0.3,1.9,1.1,2.6l0.1,0.1
		c0.7,0.7,1.6,1.1,2.6,1.1c0,0,0,0,0,0c0,0.9,0.3,1.9,1.1,2.6l0.1,0.1c0.7,0.7,1.6,1.1,2.6,1.1c0,0,0,0,0,0c0,0.9,0.3,1.9,1.1,2.6
		l0.1,0.1h0c0.7,0.7,1.6,1.1,2.6,1.1c0.8,0,1.6-0.3,2.3-0.8l0.2,0.2c0.7,0.7,1.6,1.1,2.6,1.1c1,0,1.9-0.4,2.6-1.1
		c0.7-0.7,1.1-1.6,1.1-2.6c0,0,0,0,0-0.1c0,0,0,0,0.1,0c0.9,0,1.9-0.4,2.6-1.1c0.7-0.7,1.1-1.7,1.1-2.6c0,0,0,0,0.1,0
		c1,0,1.9-0.4,2.6-1.1c0.7-0.7,1.1-1.7,1.1-2.6c0,0,0,0,0.1,0c1,0,1.9-0.4,2.6-1.1c1.4-1.4,1.4-3.7,0-5.2l-0.2-0.2l1.9-1.9
		c0.4-0.4,0.4-1,0-1.4c-0.4-0.4-1-0.4-1.4,0l-1.9,1.9l-9.9-9.9h2.9c0.3,0,0.5-0.1,0.7-0.3l2.2-2.2c0.4-0.4,0.4-1,0-1.4
		c-0.4-0.4-1-0.4-1.4,0L44,33.2h-5h-3.2c-0.3,0-0.5,0.1-0.7,0.3l-2.7,2.7c-0.3,0.3-0.7,0.5-1.1,0.5c-0.4,0-0.8-0.2-1.2-0.5
		c-0.3-0.3-0.5-0.7-0.5-1.2c0-0.4,0.2-0.8,0.5-1.2l6.5-6.5c0,0,0,0,0,0L40,24l8.4,0.4l11.9,11.9l-4.1,4.1c-0.4,0.4-0.4,1,0,1.4
		c0.2,0.2,0.5,0.3,0.7,0.3s0.5-0.1,0.7-0.3l4.2-4.2c0.3,0.2,0.7,0.2,1.1,0.2c0.7,0,1.3-0.2,1.8-0.7l3.4-3.4c0.5-0.5,0.7-1.1,0.7-1.8
		c0-0.7-0.3-1.3-0.7-1.8L68.1,30l4.2-4.2C72.5,25.6,72.6,25.4,72.6,25.1 M9.3,34.6c-0.1-0.1-0.2-0.3-0.2-0.4c0-0.1,0-0.2,0.2-0.4
		L23.1,20c0.1-0.1,0.3-0.2,0.4-0.2c0.1,0,0.2,0,0.4,0.2l3.4,3.4c0.2,0.2,0.2,0.5,0,0.7L13.4,38c-0.2,0.2-0.5,0.2-0.7,0L9.3,34.6z
		 M22,50C22,50,22,50,22,50L22,50c-0.7-0.7-0.7-1.7-0.1-2.3c0.3-0.3,0.7-0.5,1.1-0.5c0.4,0,0.8,0.2,1.1,0.5l0.1,0.1
		c0.6,0.6,0.6,1.4,0.2,2c-0.1,0.1-0.2,0.1-0.2,0.2c-0.1,0.1-0.1,0.1-0.2,0.2C23.4,50.6,22.5,50.5,22,50 M25.7,53.7L25.7,53.7
		c-0.6-0.6-0.7-1.5-0.3-2.1c0.1-0.1,0.2-0.1,0.2-0.2c0.1-0.1,0.1-0.1,0.2-0.2c0.6-0.4,1.5-0.4,2,0.2l0.1,0.1c0.6,0.6,0.6,1.4,0.2,2
		c-0.1,0.1-0.2,0.1-0.2,0.2c-0.1,0.1-0.1,0.1-0.2,0.2C27.1,54.3,26.3,54.3,25.7,53.7 M29.5,57.4L29.5,57.4L29.5,57.4
		c-0.6-0.6-0.7-1.5-0.3-2.1c0.1-0.1,0.2-0.1,0.2-0.2c0.1-0.1,0.1-0.1,0.2-0.2c0.3-0.2,0.6-0.3,0.9-0.3c0.4,0,0.8,0.2,1.1,0.5
		l0.1,0.1c0.6,0.6,0.6,1.4,0.2,2c-0.1,0.1-0.2,0.1-0.2,0.2c-0.1,0.1-0.1,0.1-0.2,0.2C30.9,58.1,30,58,29.5,57.4 M35.5,61.2
		c-0.6,0.6-1.6,0.6-2.3,0l-0.1-0.1c-0.6-0.6-0.6-1.4-0.2-2c0.1-0.1,0.2-0.1,0.2-0.2c0.1-0.1,0.1-0.1,0.2-0.2c0.6-0.4,1.5-0.4,2,0.2
		l0.1,0.1C36.1,59.5,36.1,60.5,35.5,61.2 M28.6,32.5c-0.7,0.7-1.1,1.6-1.1,2.6s0.4,1.9,1.1,2.6c0.7,0.7,1.6,1.1,2.6,1.1
		c1,0,1.9-0.4,2.6-1.1l2.4-2.4h2.4l13,13c0.6,0.6,0.6,1.7,0,2.3C51.4,50.9,51,51,50.5,51c-0.4,0-0.7-0.1-1-0.3c0,0-8-7.9-8-7.9
		c-0.4-0.4-1-0.4-1.4,0c-0.4,0.4-0.4,1,0,1.4L48,52c0,0,0.1,0.1,0.1,0.1c0.5,0.6,0.5,1.6-0.1,2.1c-0.3,0.3-0.7,0.5-1.1,0.5
		c-0.4,0-0.7-0.1-1-0.3c0,0-8-7.9-8-7.9c-0.4-0.4-1-0.4-1.4,0c-0.4,0.4-0.4,1,0,1.4l7.8,7.8c0,0,0.1,0.1,0.1,0.1
		c0.5,0.6,0.5,1.6-0.1,2.1c-0.6,0.6-1.5,0.6-2.1,0.1c0,0-8-7.9-8-7.9c-0.4-0.4-1-0.4-1.4,0c-0.4,0.4-0.4,1,0,1.4l7.8,7.8
		c0,0,0.1,0.1,0.1,0.1c0.2,0.3,0.3,0.6,0.3,1c0,0.4-0.2,0.8-0.5,1.1c-0.3,0.3-0.7,0.5-1.1,0.5s-0.8-0.2-1.1-0.5l-0.5-0.5
		c0.4-1.3,0.1-2.7-0.9-3.7l-0.1-0.1c-0.7-0.7-1.6-1.1-2.6-1.1c0,0,0,0,0,0c0,0,0,0,0,0c0-1-0.4-1.9-1.1-2.6l-0.1-0.1
		c-0.7-0.7-1.7-1.1-2.6-1.1c0-0.9-0.3-1.9-1.1-2.6l-0.1-0.1c-0.7-0.7-1.6-1.1-2.6-1.1c0,0,0,0,0,0c0-0.9-0.3-1.9-1.1-2.6l-0.1-0.1
		c-0.7-0.7-1.6-1.1-2.6-1.1c-0.4,0-0.8,0.1-1.2,0.2l-6.5-6.5l12.2-12.2l6.2,0.7L28.6,32.5z M66.7,32.3l-3.4,3.4
		c-0.2,0.2-0.5,0.2-0.7,0l-0.1-0.1c0,0,0,0,0,0c0,0,0,0,0,0L48.7,21.8c-0.1-0.1-0.2-0.3-0.2-0.4c0-0.1,0-0.2,0.2-0.4l3.4-3.4
		c0.1-0.1,0.3-0.2,0.4-0.2s0.2,0,0.4,0.2l13.9,13.9c0.1,0.1,0.2,0.3,0.2,0.4C66.9,32,66.9,32.2,66.7,32.3"/>
	<path class="st10" d="M63,30.3c-0.4-0.4-1-0.4-1.4,0c-0.4,0.4-0.4,1,0,1.4l0.6,0.6c0.2,0.2,0.5,0.3,0.7,0.3s0.5-0.1,0.7-0.3
		c0.4-0.4,0.4-1,0-1.4L63,30.3z"/>
	<path class="st10" d="M13.8,34.6l0.6-0.6c0.4-0.4,0.4-1,0-1.4c-0.4-0.4-1-0.4-1.4,0l-0.6,0.6c-0.4,0.4-0.4,1,0,1.4
		c0.2,0.2,0.5,0.3,0.7,0.3S13.6,34.8,13.8,34.6"/>
</g>
</svg>
