<?xml version="1.0" encoding="utf-8"?>
<!-- Generator: Adobe Illustrator 17.0.0, SVG Export Plug-In . SVG Version: 6.00 Build 0)  -->
<!DOCTYPE svg PUBLIC "-//W3C//DTD SVG 1.1//EN" "http://www.w3.org/Graphics/SVG/1.1/DTD/svg11.dtd">
<svg version="1.1" id="Capa_1" xmlns="http://www.w3.org/2000/svg" xmlns:xlink="http://www.w3.org/1999/xlink" x="0px" y="0px"
	 width="76px" height="76px" viewBox="0 0 76 76" style="enable-background:new 0 0 76 76;" xml:space="preserve">
<style type="text/css">
	.st0{fill:#85432A;}
	.st1{fill:#E60000;}
	.st2{fill:none;stroke:#F2F2F2;stroke-width:2;stroke-linecap:round;stroke-linejoin:round;stroke-miterlimit:10;}
	.st3{fill:#F2F2F2;}
	.st4{fill:#FFFFFF;}
	.st5{fill:#F10D13;}
	.st6{fill:none;stroke:#999999;stroke-width:2;stroke-linecap:round;stroke-linejoin:round;stroke-miterlimit:10;}
	.st7{fill:none;stroke:#FFB819;stroke-width:1.5;stroke-linecap:round;stroke-linejoin:round;stroke-miterlimit:10;}
	.st8{fill:#FFB819;}
	.st9{fill:#3FAE2A;}
	.st10{fill:#FDB07C;}
	.st11{fill:#19BBFF;}
	.st12{fill:#FF4D6A;}
	.st13{fill:#A666CE;}
</style>
<g>
	<path class="st8" d="M19.6,63c-0.4-0.5-1.1-0.6-1.6-0.3c-0.5,0.4-0.6,1.1-0.3,1.6l1.7,2.4c0.2,0.3,0.6,0.5,0.9,0.5
		c0.2,0,0.5-0.1,0.7-0.2c0.5-0.4,0.6-1.1,0.3-1.6L19.6,63z"/>
	<path class="st8" d="M32.6,56.9c-0.9-4.3-3.4-8.1-7.1-10.5l-4-2.7c-1.6-1.1-3.8-0.8-5.1,0.5V30.5c0-1.8-1.2-3.3-3-3.7
		c-1.1-0.3-2.3,0-3.2,0.7c-0.9,0.7-1.4,1.8-1.4,3v17.7c0,2.3,0.7,4.5,2.1,6.4l2,2.9c0.2,0.3,0.6,0.5,0.9,0.5c0.2,0,0.5-0.1,0.7-0.2
		c0.5-0.4,0.6-1.1,0.3-1.6l-2-2.9c-1.1-1.5-1.6-3.3-1.6-5.1V30.5c0-0.5,0.2-0.9,0.6-1.2C12,29,12.5,28.9,13,29
		c0.7,0.2,1.2,0.8,1.2,1.5v14c0,2,0.7,3.9,2.1,5.4c0.1,0.1,0.1,0.1,0.2,0.2c0.8,0.8,1.6,1.7,2.5,2.6l1.2,1.2c0,0,0,0,0,0
		c1,1.1,1.7,1.9,1.8,1.9c0.4,0.5,1.2,0.5,1.6,0.1c0.5-0.4,0.5-1.2,0.1-1.6c0,0-1.4-1.4-2.9-3.1L18,48.4c0,0,0,0,0,0
		c-0.6-0.7-0.6-1.8,0-2.5c0.6-0.6,1.5-0.8,2.2-0.3l4,2.7c3.2,2.1,5.4,5.4,6.1,9.1l1.9,8.9c0.1,0.5,0.6,0.9,1.1,0.9
		c0.1,0,0.2,0,0.2,0c0.6-0.1,1-0.7,0.9-1.4L32.6,56.9z"/>
	<path class="st8" d="M17.2,59.6c-0.4-0.5-1.1-0.6-1.6-0.3c-0.5,0.4-0.6,1.1-0.3,1.6l0,0c0.2,0.3,0.6,0.5,0.9,0.5
		c0.2,0,0.5-0.1,0.7-0.2C17.5,60.9,17.6,60.2,17.2,59.6L17.2,59.6z"/>
	<path class="st8" d="M65.8,27.5c-0.9-0.7-2.1-1-3.2-0.7c-1.8,0.4-3,1.9-3,3.7v13.7c-1.3-1.4-3.5-1.6-5.1-0.5l-4,2.7
		c-3.7,2.5-6.2,6.2-7.1,10.5l-1.9,8.9c-0.1,0.6,0.3,1.2,0.9,1.4c0.1,0,0.2,0,0.2,0c0.5,0,1-0.4,1.1-0.9l1.9-8.9c0.8-3.7,3-7,6.1-9.1
		l4-2.7c0.7-0.5,1.7-0.4,2.2,0.3c0.6,0.7,0.7,1.8,0,2.5c0,0,0,0,0,0c0,0-5.5,5.8-5.5,5.8c-0.4,0.5-0.4,1.2,0.1,1.6
		c0.5,0.4,1.2,0.4,1.6-0.1c0,0,4.7-5,5.4-5.8c0.1-0.1,0.1-0.1,0.2-0.2c1.3-1.5,2.1-3.4,2.1-5.4v-14c0-0.7,0.5-1.3,1.2-1.5
		c0.5-0.1,0.9,0,1.3,0.3c0.4,0.3,0.6,0.7,0.6,1.2v17.7c0,1.8-0.6,3.6-1.6,5.1l-8.6,12.1c-0.4,0.5-0.2,1.2,0.3,1.6
		c0.2,0.1,0.4,0.2,0.7,0.2c0.4,0,0.7-0.2,0.9-0.5l8.6-12.1c1.3-1.9,2.1-4.1,2.1-6.4V30.5C67.2,29.3,66.7,28.2,65.8,27.5"/>
	<path class="st8" d="M49,44.8c0.6,0,1.1-0.5,1.1-1.1v-4.1c0-0.1,0-0.3,0-0.4h5.3c0.6,0,1.1-0.5,1.1-1.1v-2.1c0-2.5-1.7-4.6-4.1-5.2
		l-2-0.5v-0.4c1.3-0.9,2.2-2.5,2.2-4.2V23c0-2.8-2.3-5.1-5.1-5.1c-1.3,0-2.4,0.5-3.3,1.2c-1-2.4-3.4-4.2-6.2-4.2
		c-2.8,0-5.2,1.7-6.2,4.2c-0.9-0.8-2.1-1.2-3.3-1.2c-2.8,0-5.1,2.3-5.1,5.1v0.2v2.5c0,1.7,0.9,3.3,2.2,4.2v0.4l-2,0.5
		c-2.4,0.6-4.1,2.7-4.1,5.2V38c0,0.6,0.5,1.1,1.1,1.1h5.2c0,0.1,0,0.3,0,0.4v4.1c0,0.6,0.5,1.1,1.1,1.1h6.9c0.6,0,1.1-0.5,1.1-1.1
		s-0.5-1.1-1.1-1.1h-1.2v-2.4c0-0.6-0.5-1.1-1.1-1.1s-1.1,0.5-1.1,1.1v2.4h-2.3v-3c0-2.2,1.5-4.1,3.6-4.6l3.1-0.8L37,39
		c0.2,0.4,0.6,0.7,1,0.7h0c0.5,0,0.9-0.3,1-0.7l2.1-4.8l3.1,0.7c2.1,0.5,3.6,2.4,3.6,4.6v3h-2.3v-2.4c0-0.6-0.5-1.1-1.1-1.1
		s-1.1,0.5-1.1,1.1v2.4h-1.3c-0.6,0-1.1,0.5-1.1,1.1s0.5,1.1,1.1,1.1H49z M34.4,31c-0.3-0.1-0.6-0.2-0.9-0.3l-2-0.5v-0.4
		c0.4-0.3,0.7-0.6,1-0.9C32.9,29.7,33.6,30.4,34.4,31L34.4,31z M25.7,25.6v-0.5h1.6c1.4,0,2.8-0.3,4.1-0.8v1.4
		c0,1.6-1.3,2.8-2.8,2.8C27,28.5,25.7,27.2,25.7,25.6 M33.6,25.3v-1.2h1.6c1.8,0,3.5-0.7,4.8-1.9l2.4,1.4v1.9
		c-0.1,2.3-2,4.2-4.4,4.2C35.6,29.7,33.6,27.7,33.6,25.3 M41.6,31L41.6,31c0.8-0.6,1.5-1.3,2-2c0.3,0.3,0.6,0.6,1,0.9v0.4l-2,0.5
		C42.2,30.7,41.9,30.8,41.6,31 M44.7,25.6v-0.2c0-0.1,0-0.1,0-0.2v-1c1.3,0.5,2.7,0.8,4.1,0.8h1.6v0.5c0,1.6-1.3,2.8-2.8,2.8
		S44.7,27.2,44.7,25.6 M47.5,20.2c1.5,0,2.7,1.2,2.8,2.6h-1.6c-1.3,0-2.6-0.3-3.8-0.9C45.3,20.9,46.3,20.2,47.5,20.2 M33.6,21.6
		c0-2.4,2-4.4,4.4-4.4c2.2,0,4,1.6,4.3,3.7l-1.9-1.1c-0.5-0.3-1.1-0.2-1.5,0.3c-0.9,1.1-2.3,1.8-3.8,1.8h-1.6V21.6z M28.5,20.2
		c1.2,0,2.2,0.7,2.6,1.7c-1.2,0.6-2.5,0.9-3.8,0.9h-1.6C25.8,21.3,27,20.2,28.5,20.2 M31.2,32.7c-2.2,0.5-4,2.1-4.8,4.1h-4.6v-1
		c0-1.4,1-2.7,2.4-3l2.9-0.7c0.5-0.1,0.9-0.6,0.9-1.1v-0.4c0.2,0,0.4,0,0.6,0c0.2,0,0.4,0,0.6,0V31c0,0,0,0,0,0.1
		c0,0.4,0.2,0.7,0.5,1c0.1,0.1,0.3,0.1,0.4,0.2l1.7,0.4L31.2,32.7z M38,35.7l-1.3-3v-0.8c0.4,0.1,0.9,0.1,1.3,0.1
		c0.5,0,0.9,0,1.3-0.1v0.8L38,35.7z M44.8,32.7l-0.6-0.1l1.7-0.4c0.1,0,0.3-0.1,0.4-0.2c0.3-0.2,0.5-0.6,0.5-1c0,0,0,0,0,0v-0.4
		c0.2,0,0.4,0,0.6,0c0.2,0,0.4,0,0.6,0v0.4c0,0.5,0.4,1,0.9,1.1l2.9,0.7c1.4,0.3,2.4,1.6,2.4,3v1h-4.6C48.8,34.8,47,33.3,44.8,32.7"
		/>
	<path class="st8" d="M38,42.5c-0.3,0-0.6,0.1-0.8,0.3c-0.2,0.2-0.3,0.5-0.3,0.8c0,0.3,0.1,0.6,0.3,0.8c0.2,0.2,0.5,0.3,0.8,0.3
		c0.3,0,0.6-0.1,0.8-0.3c0.2-0.2,0.3-0.5,0.3-0.8c0-0.3-0.1-0.6-0.3-0.8C38.6,42.6,38.3,42.5,38,42.5"/>
	<path class="st8" d="M38,12.8c0.6,0,1.1-0.5,1.1-1.1V9.9c0-0.6-0.5-1.1-1.1-1.1s-1.1,0.5-1.1,1.1v1.7C36.9,12.3,37.4,12.8,38,12.8"
		/>
	<path class="st8" d="M32.2,14.1c0.2,0.2,0.5,0.3,0.8,0.3c0.3,0,0.6-0.1,0.8-0.3c0.4-0.4,0.4-1.2,0-1.6l-1.2-1.2
		c-0.4-0.4-1.2-0.4-1.6,0c-0.4,0.4-0.4,1.2,0,1.6L32.2,14.1z"/>
	<path class="st8" d="M43,14.5c0.3,0,0.6-0.1,0.8-0.3L45,13c0.4-0.4,0.4-1.2,0-1.6c-0.4-0.4-1.2-0.4-1.6,0l-1.2,1.2
		c-0.4,0.4-0.4,1.2,0,1.6C42.4,14.4,42.7,14.5,43,14.5"/>
</g>
</svg>
