<?xml version="1.0" encoding="utf-8"?>
<!-- Generator: Adobe Illustrator 17.0.0, SVG Export Plug-In . SVG Version: 6.00 Build 0)  -->
<!DOCTYPE svg PUBLIC "-//W3C//DTD SVG 1.1//EN" "http://www.w3.org/Graphics/SVG/1.1/DTD/svg11.dtd">
<svg version="1.1" id="Capa_1" xmlns="http://www.w3.org/2000/svg" xmlns:xlink="http://www.w3.org/1999/xlink" x="0px" y="0px"
	 width="76px" height="76px" viewBox="0 0 76 76" style="enable-background:new 0 0 76 76;" xml:space="preserve">
<style type="text/css">
	.st0{fill:#85432A;}
	.st1{fill:#E60000;}
	.st2{fill:none;stroke:#F2F2F2;stroke-width:2;stroke-linecap:round;stroke-linejoin:round;stroke-miterlimit:10;}
	.st3{fill:#F2F2F2;}
	.st4{fill:#FFFFFF;}
	.st5{fill:#F10D13;}
	.st6{fill:none;stroke:#999999;stroke-width:2;stroke-linecap:round;stroke-linejoin:round;stroke-miterlimit:10;}
	.st7{fill:none;stroke:#FFB819;stroke-width:1.5;stroke-linecap:round;stroke-linejoin:round;stroke-miterlimit:10;}
	.st8{fill:#FFB819;}
	.st9{fill:#3FAE2A;}
	.st10{fill:#FDB07C;}
	.st11{fill:#19BBFF;}
	.st12{fill:#FF4D6A;}
	.st13{fill:#A666CE;}
</style>
<g>
	<path class="st9" d="M53.1,64.7c-0.3,0-0.6,0.1-0.8,0.3S52,65.5,52,65.8c0,0.3,0.1,0.6,0.3,0.8c0.2,0.2,0.5,0.3,0.8,0.3
		c0.3,0,0.6-0.1,0.8-0.3c0.2-0.2,0.3-0.5,0.3-0.8c0-0.3-0.1-0.6-0.3-0.8S53.4,64.7,53.1,64.7"/>
	<path class="st9" d="M61,53.9l-3-0.5c-0.6-0.1-1.1-0.7-1.1-1.3c2.3-1.3,3.9-3.8,3.9-6.7V41c0-4.2-3.4-7.7-7.7-7.7
		c-1.3,0-2.6,0.3-3.6,0.9v-3h1.1c3.7,0,6.6-3,6.6-6.6v-8.9c0-3.7-3-6.6-6.6-6.6H38c-0.6,0-1.1,0.5-1.1,1.1c0,0.6,0.5,1.1,1.1,1.1
		h12.5c2.4,0,4.4,2,4.4,4.4v8.9c0,2.4-2,4.4-4.4,4.4h-2.2c-0.6,0-1.1,0.5-1.1,1.1v2l-2.8-2.8C44.2,29.1,44,29,43.7,29H32.3
		c-0.3,0-0.6,0.1-0.8,0.3l-2.8,2.8v-2c0-0.6-0.5-1.1-1.1-1.1h-2.2c-2.4,0-4.4-2-4.4-4.4v-8.9c0-2.4,2-4.4,4.4-4.4h2.4
		c0.6,0,1.1-0.5,1.1-1.1c0-0.6-0.5-1.1-1.1-1.1h-2.4c-3.7,0-6.6,3-6.6,6.6v8.9c0,3.7,3,6.6,6.6,6.6h1.1v3c-1.1-0.6-2.3-0.9-3.6-0.9
		c-4.2,0-7.7,3.4-7.7,7.7v4.4c0,2.9,1.6,5.3,3.9,6.7c0,0.7-0.5,1.2-1.1,1.3l-3,0.5c-3.4,0.6-5.9,3.6-5.9,7.1v4.8
		c0,0.6,0.5,1.1,1.1,1.1h25.3c0.6,0,1.1-0.5,1.1-1.1V61c0-3.5-2.5-6.4-5.9-7.1l-3-0.5c-0.6-0.1-1.1-0.7-1.1-1.3
		c2.3-1.3,3.9-3.8,3.9-6.7V41c0-2.1-0.8-4-2.2-5.4c0,0,0.1,0,0.1-0.1l4.4-4.4h10.4l4.4,4.4c0,0,0,0,0.1,0.1
		c-1.3,1.4-2.2,3.3-2.2,5.4v4.4c0,2.9,1.6,5.3,3.9,6.7c0,0.7-0.5,1.2-1.1,1.3l-3,0.5c-3.4,0.6-5.9,3.6-5.9,7.1v4.8
		c0,0.6,0.5,1.1,1.1,1.1h8.1c0.6,0,1.1-0.5,1.1-1.1s-0.5-1.1-1.1-1.1h-7V61c0-2.4,1.7-4.4,4-4.9l3-0.5c0.1,0,0.2,0,0.3-0.1l3.3,5.2
		c0.2,0.3,0.6,0.5,1,0.5c0.4,0,0.8-0.2,1-0.5l3.3-5.2c0.1,0,0.2,0,0.3,0.1l3,0.5c2.3,0.4,4,2.5,4,4.9v3.6h-7.3
		c-0.6,0-1.1,0.5-1.1,1.1s0.5,1.1,1.1,1.1h8.4c0.6,0,1.1-0.5,1.1-1.1V61C66.9,57.5,64.4,54.6,61,53.9 M17.4,41c0-3,2.4-5.4,5.4-5.4
		c2.9,0,5.2,2.2,5.4,5l-2.7-1.6c-0.5-0.3-1.1-0.2-1.4,0.2c-1.2,1.4-2.9,2.2-4.7,2.2h-2.1v-0.2V41z M34.4,61v3.6h-23V61
		c0-2.4,1.7-4.4,4-4.9l3-0.5c0.1,0,0.2,0,0.3-0.1l3.3,5.2c0.2,0.3,0.6,0.5,1,0.5c0.4,0,0.8-0.2,1-0.5l3.3-5.2c0.1,0,0.2,0,0.3,0.1
		l3,0.5C32.7,56.6,34.4,58.6,34.4,61 M25.2,54.3L22.9,58l-2.3-3.7c0.3-0.4,0.6-0.9,0.7-1.4c0.5,0.1,1.1,0.2,1.6,0.2s1.1-0.1,1.6-0.2
		C24.6,53.4,24.9,53.9,25.2,54.3 M22.9,50.8c-3,0-5.4-2.4-5.4-5.4v-1.7h2.1c2.1,0,4.2-0.8,5.7-2.3l3,1.8v2.1
		C28.3,48.4,25.9,50.8,22.9,50.8 M58.5,40.6l-2.7-1.6c-0.5-0.3-1.1-0.2-1.4,0.2c-1.2,1.4-2.9,2.2-4.7,2.2h-2.1v-0.2V41
		c0-3,2.4-5.4,5.4-5.4C56,35.6,58.3,37.8,58.5,40.6 M47.7,45.4v-1.7h2.1c2.1,0,4.2-0.8,5.7-2.3l3,1.8v2.1c0,3-2.4,5.4-5.4,5.4
		C50.1,50.8,47.7,48.4,47.7,45.4 M53.1,58l-2.3-3.7c0.3-0.4,0.6-0.9,0.7-1.4c0.5,0.1,1.1,0.2,1.6,0.2c0.6,0,1.1-0.1,1.6-0.2
		c0.1,0.5,0.4,1,0.7,1.4L53.1,58z"/>
	<path class="st9" d="M33,11.3c0.3,0,0.6-0.1,0.8-0.3c0.2-0.2,0.3-0.5,0.3-0.8c0-0.3-0.1-0.6-0.3-0.8c-0.2-0.2-0.5-0.3-0.8-0.3
		c-0.3,0-0.6,0.1-0.8,0.3c-0.2,0.2-0.3,0.5-0.3,0.8c0,0.3,0.1,0.6,0.3,0.8C32.4,11.2,32.7,11.3,33,11.3"/>
	<path class="st9" d="M36.9,18.6c-0.4-0.4-1.2-0.4-1.6,0c-0.4,0.4-0.4,1.2,0,1.6l2.3,2.3c0.2,0.2,0.5,0.3,0.8,0.3
		c0.3,0,0.6-0.1,0.8-0.3l4.7-4.7c0.4-0.4,0.4-1.2,0-1.6s-1.2-0.4-1.6,0l-3.9,3.9L36.9,18.6z"/>
	<path class="st9" d="M38,27.2c1.8,0,3.6-0.7,5-2c0.4-0.4,0.4-1.2,0-1.6c-0.4-0.4-1.2-0.4-1.6,0c-1.8,1.8-4.9,1.8-6.7,0
		c-1.8-1.8-1.8-4.9,0-6.7c0.9-0.9,2.1-1.4,3.4-1.4c0.6,0,1.1-0.5,1.1-1.1c0-0.6-0.5-1.1-1.1-1.1c-1.9,0-3.6,0.7-5,2.1
		c-2.7,2.7-2.7,7.2,0,9.9C34.4,26.5,36.2,27.2,38,27.2"/>
	<path class="st9" d="M21.3,45.1c0-0.3-0.1-0.6-0.3-0.8c-0.2-0.2-0.5-0.3-0.8-0.3c-0.3,0-0.6,0.1-0.8,0.3c-0.2,0.2-0.3,0.5-0.3,0.8
		c0,0.3,0.1,0.6,0.3,0.8c0.2,0.2,0.5,0.3,0.8,0.3c0.3,0,0.6-0.1,0.8-0.3C21.2,45.7,21.3,45.4,21.3,45.1"/>
	<path class="st9" d="M25.5,43.9c-0.3,0-0.6,0.1-0.8,0.3c-0.2,0.2-0.3,0.5-0.3,0.8c0,0.3,0.1,0.6,0.3,0.8c0.2,0.2,0.5,0.3,0.8,0.3
		c0.3,0,0.6-0.1,0.8-0.3c0.2-0.2,0.3-0.5,0.3-0.8c0-0.3-0.1-0.6-0.3-0.8C26.1,44.1,25.8,43.9,25.5,43.9"/>
	<path class="st9" d="M23,47c-0.1,0.1-0.3,0.1-0.4,0c-0.4-0.4-1.2-0.4-1.6,0c-0.4,0.4-0.4,1.2,0,1.6c0.5,0.5,1.1,0.7,1.8,0.7
		c0.6,0,1.3-0.2,1.8-0.7c0.4-0.4,0.4-1.2,0-1.6C24.2,46.5,23.5,46.5,23,47"/>
	<path class="st9" d="M51.6,45.1c0-0.3-0.1-0.6-0.3-0.8c-0.2-0.2-0.5-0.3-0.8-0.3c-0.3,0-0.6,0.1-0.8,0.3c-0.2,0.2-0.3,0.5-0.3,0.8
		c0,0.3,0.1,0.6,0.3,0.8c0.2,0.2,0.5,0.3,0.8,0.3c0.3,0,0.6-0.1,0.8-0.3C51.5,45.7,51.6,45.4,51.6,45.1"/>
	<path class="st9" d="M55.8,46.2c0.3,0,0.6-0.1,0.8-0.3c0.2-0.2,0.3-0.5,0.3-0.8c0-0.3-0.1-0.6-0.3-0.8c-0.2-0.2-0.5-0.3-0.8-0.3
		c-0.3,0-0.6,0.1-0.8,0.3c-0.2,0.2-0.3,0.5-0.3,0.8c0,0.3,0.1,0.6,0.3,0.8C55.2,46.1,55.5,46.2,55.8,46.2"/>
	<path class="st9" d="M54.9,47c-0.4-0.4-1.2-0.4-1.6,0c-0.1,0.1-0.3,0.1-0.4,0c-0.4-0.4-1.2-0.4-1.6,0c-0.4,0.4-0.4,1.2,0,1.6
		c0.5,0.5,1.1,0.7,1.8,0.7c0.6,0,1.3-0.2,1.8-0.7C55.3,48.1,55.3,47.4,54.9,47"/>
</g>
</svg>
