<?xml version="1.0" encoding="utf-8"?>
<!-- Generator: Adobe Illustrator 17.0.0, SVG Export Plug-In . SVG Version: 6.00 Build 0)  -->
<!DOCTYPE svg PUBLIC "-//W3C//DTD SVG 1.1//EN" "http://www.w3.org/Graphics/SVG/1.1/DTD/svg11.dtd">
<svg version="1.1" id="Capa_1" xmlns="http://www.w3.org/2000/svg" xmlns:xlink="http://www.w3.org/1999/xlink" x="0px" y="0px"
	 width="76px" height="76px" viewBox="0 0 76 76" style="enable-background:new 0 0 76 76;" xml:space="preserve">
<style type="text/css">
	.st0{fill:#85432A;}
	.st1{fill:#E60000;}
	.st2{fill:none;stroke:#F2F2F2;stroke-width:2;stroke-linecap:round;stroke-linejoin:round;stroke-miterlimit:10;}
	.st3{fill:#F2F2F2;}
	.st4{fill:#FFFFFF;}
	.st5{fill:#F10D13;}
	.st6{fill:none;stroke:#999999;stroke-width:2.5;stroke-linecap:round;stroke-linejoin:round;stroke-miterlimit:10;}
	.st7{fill:none;stroke:#FFB819;stroke-width:1.5;stroke-linecap:round;stroke-linejoin:round;stroke-miterlimit:10;}
	.st8{fill:#FFB819;}
	.st9{fill:#3FAE2A;}
	.st10{fill:#FDB07C;}
	.st11{fill:#19BBFF;}
	.st12{fill:#FF4D6A;}
	.st13{fill:#A666CE;}
	.st14{fill:#FAEFD5;}
	.st15{fill:#D9160B;}
	.st16{fill:none;stroke:#D9160B;stroke-width:0.5;stroke-linecap:round;stroke-linejoin:round;stroke-miterlimit:10;}
	
		.st17{fill:none;stroke:#D9160B;stroke-width:0.5;stroke-linecap:round;stroke-linejoin:round;stroke-miterlimit:10;stroke-dasharray:0,0.967;}
	.st18{fill:none;stroke:#F2F2F2;stroke-miterlimit:10;}
	.st19{fill:none;stroke:#F2F2F2;stroke-width:3;stroke-miterlimit:10;}
</style>
<g>
	<path class="st19" d="M56.2,9.2c0.1,0.3,0,0.6-0.2,0.9c-0.2,0.3-0.5,0.4-0.8,0.4c-8.5,0.1-15.4,0.6-23.6,1.6
		c-0.3,0-0.6-0.1-0.8-0.3c-0.2-0.2-0.3-0.5-0.3-0.8c0.6-4.6,5.8-8.4,12.3-8.9C49.3,1.6,55,4.7,56.2,9.2z"/>
	<path class="st19" d="M62.4,71.5c0.2-0.2,0.3-0.5,0.3-0.9c0-0.3-0.2-0.6-0.5-0.7c-7.4-4.3-13.2-8.1-19.8-13
		c-0.3-0.2-0.6-0.3-0.9-0.2c-0.3,0.1-0.5,0.3-0.7,0.6c-1.7,4.3,0.9,10.2,6.4,13.8C52.7,74.8,59.2,74.8,62.4,71.5z"/>
	<path class="st19" d="M17.5,21.1C13,28.4,9.1,34.1,4,40.5c-0.2,0.3-0.3,0.6-0.2,0.9c0.1,0.3,0.3,0.6,0.6,0.7c4.2,1.9,10.2-0.6,14-6
		c3.8-5.4,4-11.8,0.8-15.2c-0.2-0.2-0.5-0.3-0.8-0.3C18,20.7,17.7,20.9,17.5,21.1"/>
	<path class="st19" d="M31.9,43.1c-3.6-2.9-4.1-9.3-1-15.1c3.1-5.8,8.7-9,13.1-7.6c0.3,0.1,0.5,0.3,0.7,0.6c0.1,0.3,0.1,0.6-0.1,0.9
		c-4.3,7-7.5,13.2-11.1,20.9c-0.1,0.3-0.4,0.5-0.7,0.6C32.4,43.4,32.1,43.3,31.9,43.1z"/>
	<path class="st19" d="M34,53c0-0.3-0.1-0.6-0.3-0.9c-0.2-0.2-0.5-0.3-0.8-0.3c-8.3,1-15.1,1.5-23.3,1.6c-0.3,0-0.6,0.1-0.8,0.4
		c-0.2,0.3-0.3,0.6-0.2,0.9c1.2,4.4,6.8,7.4,13.2,7C28.4,61.2,33.5,57.5,34,53z"/>
	<path class="st19" d="M57,57.1c0.3-0.1,0.6-0.3,0.7-0.5c0.1-0.3,0.1-0.6,0-0.9c-3.7-7.7-6.3-14.1-9-21.9c-0.1-0.3-0.3-0.5-0.6-0.6
		c-0.3-0.1-0.6-0.1-0.9,0.1c-3.8,2.5-5,8.9-2.5,15C47.1,54.4,52.4,58.1,57,57.1z"/>
	<path class="st19" d="M71.8,40.4c0.3-0.2,0.4-0.4,0.5-0.8c0-0.3-0.1-0.6-0.3-0.8c-6.1-5.9-10.8-11-16.1-17.3
		c-0.2-0.3-0.5-0.4-0.8-0.4c-0.3,0-0.6,0.2-0.8,0.4c-2.7,3.7-1.6,10.1,2.9,14.9C61.6,41.3,67.9,42.9,71.8,40.4z"/>
</g>
</svg>
