<?xml version="1.0" encoding="utf-8"?>
<!-- Generator: Adobe Illustrator 17.0.0, SVG Export Plug-In . SVG Version: 6.00 Build 0)  -->
<!DOCTYPE svg PUBLIC "-//W3C//DTD SVG 1.1//EN" "http://www.w3.org/Graphics/SVG/1.1/DTD/svg11.dtd">
<svg version="1.1" id="Capa_1" xmlns="http://www.w3.org/2000/svg" xmlns:xlink="http://www.w3.org/1999/xlink" x="0px" y="0px"
	 width="76px" height="76px" viewBox="0 0 76 76" style="enable-background:new 0 0 76 76;" xml:space="preserve">
<style type="text/css">
	.st0{fill:#85432A;}
	.st1{fill:#E60000;}
	.st2{fill:none;stroke:#F2F2F2;stroke-width:2;stroke-linecap:round;stroke-linejoin:round;stroke-miterlimit:10;}
	.st3{fill:#F2F2F2;}
	.st4{fill:#FFFFFF;}
	.st5{fill:#F10D13;}
	.st6{fill:none;stroke:#999999;stroke-width:2.5;stroke-linecap:round;stroke-linejoin:round;stroke-miterlimit:10;}
	.st7{fill:none;stroke:#FFB819;stroke-width:1.5;stroke-linecap:round;stroke-linejoin:round;stroke-miterlimit:10;}
	.st8{fill:#FFB819;}
	.st9{fill:#3FAE2A;}
	.st10{fill:#FDB07C;}
	.st11{fill:#19BBFF;}
	.st12{fill:#FF4D6A;}
	.st13{fill:#A666CE;}
	.st14{fill:#FAEFD5;}
	.st15{fill:#D9160B;}
	.st16{fill:none;stroke:#D9160B;stroke-width:0.5;stroke-linecap:round;stroke-linejoin:round;stroke-miterlimit:10;}
	
		.st17{fill:none;stroke:#D9160B;stroke-width:0.5;stroke-linecap:round;stroke-linejoin:round;stroke-miterlimit:10;stroke-dasharray:0,0.967;}
	.st18{fill:none;stroke:#F2F2F2;stroke-miterlimit:10;}
	.st19{fill:none;stroke:#F2F2F2;stroke-width:3;stroke-miterlimit:10;}
</style>
<g>
	<path class="st3" d="M38,32.3c-3.2,0-5.7,2.6-5.7,5.7c0,3.2,2.6,5.7,5.7,5.7s5.7-2.6,5.7-5.7C43.7,34.8,41.2,32.3,38,32.3z"/>
	<path class="st3" d="M51.4,27.8c-0.6-1.5-1.8-2.7-3.3-3.3c-2.3-0.9-7.7-0.7-10.2-0.7s-7.9-0.2-10.2,0.7c-1.5,0.6-2.7,1.8-3.3,3.3
		c-0.9,2.3-0.7,7.7-0.7,10.2s-0.2,7.9,0.7,10.2c0.6,1.5,1.8,2.7,3.3,3.3c2.3,0.9,7.7,0.7,10.2,0.7s7.9,0.2,10.2-0.7
		c1.5-0.6,2.7-1.8,3.3-3.3c0.9-2.3,0.7-7.7,0.7-10.2S52.3,30.1,51.4,27.8z M38,46.8c-4.9,0-8.8-3.9-8.8-8.8s3.9-8.8,8.8-8.8
		c4.9,0,8.8,3.9,8.8,8.8S42.9,46.8,38,46.8z M47.2,30.9c-1.1,0-2.1-0.9-2.1-2.1c0-1.1,0.9-2.1,2.1-2.1s2.1,0.9,2.1,2.1
		C49.3,29.9,48.3,30.9,47.2,30.9z"/>
	<path class="st3" d="M38,7C20.9,7,7,20.9,7,38s13.9,31,31,31c17.1,0,31-13.9,31-31S55.1,7,38,7z M55.1,45.1
		c-0.1,2.8-0.8,5.2-2.8,7.2c-2,2-4.5,2.7-7.2,2.8c-2.8,0.2-11.4,0.2-14.2,0c-2.8-0.1-5.2-0.8-7.2-2.8c-2-2-2.7-4.5-2.8-7.2
		c-0.2-2.8-0.2-11.4,0-14.2c0.1-2.8,0.8-5.2,2.8-7.2c2-2,4.5-2.6,7.2-2.8c2.8-0.2,11.4-0.2,14.2,0c2.8,0.1,5.2,0.8,7.2,2.8
		c2,2,2.7,4.5,2.8,7.2C55.3,33.7,55.3,42.3,55.1,45.1z"/>
</g>
</svg>
