<?xml version="1.0" encoding="utf-8"?>
<!-- Generator: Adobe Illustrator 17.0.0, SVG Export Plug-In . SVG Version: 6.00 Build 0)  -->
<!DOCTYPE svg PUBLIC "-//W3C//DTD SVG 1.1//EN" "http://www.w3.org/Graphics/SVG/1.1/DTD/svg11.dtd">
<svg version="1.1" id="Capa_1" xmlns="http://www.w3.org/2000/svg" xmlns:xlink="http://www.w3.org/1999/xlink" x="0px" y="0px"
	 width="75.5px" height="45.1px" viewBox="0 0 75.5 45.1" style="enable-background:new 0 0 75.5 45.1;" xml:space="preserve">
<style type="text/css">
	.st0{fill:#85432A;}
	.st1{fill:#E60000;}
	.st2{fill:none;stroke:#F2F2F2;stroke-width:2;stroke-linecap:round;stroke-linejoin:round;stroke-miterlimit:10;}
	.st3{fill:#F2F2F2;}
	.st4{fill:#FFFFFF;}
	.st5{fill:#F10D13;}
	.st6{fill:none;stroke:#999999;stroke-width:2;stroke-linecap:round;stroke-linejoin:round;stroke-miterlimit:10;}
	.st7{fill:none;stroke:#FFB819;stroke-width:1.5;stroke-linecap:round;stroke-linejoin:round;stroke-miterlimit:10;}
	.st8{fill:#FFB819;}
	.st9{fill:#3FAE2A;}
	.st10{fill:#FDB07C;}
	.st11{fill:#19BBFF;}
	.st12{fill:#FF4D6A;}
	.st13{fill:#A666CE;}
</style>
<g>
	<path class="st8" d="M70.1,34.4h-3.2v-6.3c0-0.4-0.3-0.8-0.8-0.8h-2.6v-5c0-4.3-4.1-5.5-6.3-5.5h-0.5v-2.4l0.9-1
		c0.1-0.1,0.2-0.3,0.2-0.5V8.5h1.6c0.4,0,0.8-0.3,0.8-0.8S59.9,7,59.4,7h-0.6c-0.3-2.9-2.7-5.3-5.6-5.6V0.8c0-0.4-0.3-0.8-0.8-0.8
		s-0.8,0.3-0.8,0.8v0.6c-2.9,0.3-5.3,2.7-5.6,5.6h-0.6c-0.4,0-0.8,0.3-0.8,0.8s0.3,0.8,0.8,0.8h1.6v4.3c0,0.2,0.1,0.4,0.2,0.5l0.9,1
		v2.4h-0.5c0,0,0,0,0,0s0,0,0,0c-2.2,0-6.2,1.2-6.2,5.5v12.1h-7.6v-6.3c0-0.4-0.3-0.8-0.8-0.8h-2.6v-5c0-4.3-4.1-5.5-6.3-5.5h-0.5
		v-2.4l0.9-1c0.1-0.1,0.2-0.3,0.2-0.5V8.5h1.6c0.4,0,0.8-0.3,0.8-0.8S26.9,7,26.5,7h-0.6c-0.3-2.9-2.7-5.3-5.6-5.6V0.8
		C20.3,0.3,20,0,19.6,0s-0.8,0.3-0.8,0.8v0.6c-2.9,0.3-5.3,2.7-5.6,5.6h-0.6c-0.4,0-0.8,0.3-0.8,0.8s0.3,0.8,0.8,0.8h1.6v4.3
		c0,0.2,0.1,0.4,0.2,0.5l0.9,1v2.4h-0.5c0,0,0,0,0,0s0,0,0,0c-2.2,0-6.2,1.2-6.2,5.5v12.1H5.4c-3,0-5.4,2.4-5.4,5.4
		c0,3,2.4,5.4,5.4,5.4h64.8c3,0,5.4-2.4,5.4-5.4C75.5,36.8,73.1,34.4,70.1,34.4z M51.8,2.9v2c0,0.4,0.3,0.8,0.8,0.8s0.8-0.3,0.8-0.8
		v-2c2.1,0.3,3.8,2,4.1,4.1h-9.7C48,4.9,49.6,3.3,51.8,2.9z M18.8,2.9v2c0,0.4,0.3,0.8,0.8,0.8s0.8-0.3,0.8-0.8v-2
		c2.1,0.3,3.8,2,4.1,4.1h-9.7C15,4.9,16.7,3.3,18.8,2.9z M65.4,34.4H53.3v-5.6h12.1V34.4z M48.5,18.4c0.6,1,2.1,1.6,4,1.6
		c1.9,0,3.4-0.7,4-1.7V22h-8V18.4z M47.6,23.5h0.1c0,0,0,0,0,0s0,0,0,0h9.5c0,0,0,0,0,0s0,0,0,0h0.1v3.8h-4.9
		c-0.4,0-0.8,0.3-0.8,0.8v6.3h-4.1V23.5z M62,22.3v5h-3.2v-4.5c0-0.4-0.3-0.8-0.8-0.8H58v-3.7C59.3,18.5,62,19.3,62,22.3z
		 M48.6,12.6v-4h7.7v4L54.1,15h-3.2L48.6,12.6z M50.1,16.2c0.1,0.1,0.3,0.2,0.5,0.2h3.8c0.2,0,0.4-0.1,0.5-0.2l0.3-0.3v1.6
		c0,0,0,0,0,0s0,0,0,0c0,0.4-1,1.1-2.7,1.1c-1.7,0-2.7-0.7-2.7-1c0,0,0,0,0,0v-1.6L50.1,16.2z M43.1,22.3c0-3,2.6-3.7,4-3.9V22h-0.1
		c-0.4,0-0.8,0.3-0.8,0.8v11.6h-3.1V22.3z M32.4,34.4H20.3v-5.6h12.1V34.4z M15.6,18.4c0.6,1,2.1,1.6,4,1.6c1.9,0,3.4-0.7,4-1.7V22
		h-8V18.4z M14.7,23.5h0.1c0,0,0,0,0,0s0,0,0,0h9.5c0,0,0,0,0,0s0,0,0,0h0.1v3.8h-4.9c-0.4,0-0.8,0.3-0.8,0.8v6.3h-4.1V23.5z
		 M29.1,22.3v5h-3.2v-4.5c0-0.4-0.3-0.8-0.8-0.8H25v-3.7C26.4,18.5,29.1,19.3,29.1,22.3z M15.7,12.6v-4h7.7v4L21.1,15H18L15.7,12.6z
		 M17.1,16.2c0.1,0.1,0.3,0.2,0.5,0.2h3.8c0.2,0,0.4-0.1,0.5-0.2l0.3-0.3v1.6c0,0,0,0,0,0c0,0.4-1,1.1-2.7,1.1
		c-1.7,0-2.7-0.7-2.7-1.1c0,0,0,0,0,0v-1.6L17.1,16.2z M10.1,22.3c0-3,2.6-3.7,4-3.9V22h-0.2c-0.4,0-0.8,0.3-0.8,0.8v11.6h-3.1V22.3
		z M70.1,43.6H5.4c-2.1,0-3.9-1.7-3.9-3.9c0-2.1,1.7-3.9,3.9-3.9h14.2h13.6h19.3h13.6h4c2.1,0,3.9,1.7,3.9,3.9
		C74,41.9,72.3,43.6,70.1,43.6z"/>
	<path class="st8" d="M10.5,37.6c-1.1,0-2,0.9-2,2s0.9,2,2,2s2-0.9,2-2S11.6,37.6,10.5,37.6z M10.5,40.1c-0.3,0-0.5-0.2-0.5-0.5
		c0-0.3,0.2-0.5,0.5-0.5c0.3,0,0.5,0.2,0.5,0.5C11,39.9,10.7,40.1,10.5,40.1z"/>
	<path class="st8" d="M17.3,37.6c-1.1,0-2,0.9-2,2s0.9,2,2,2c1.1,0,2-0.9,2-2S18.4,37.6,17.3,37.6z M17.3,40.1
		c-0.3,0-0.5-0.2-0.5-0.5c0-0.3,0.2-0.5,0.5-0.5c0.3,0,0.5,0.2,0.5,0.5C17.8,39.9,17.6,40.1,17.3,40.1z"/>
	<path class="st8" d="M24.1,37.6c-1.1,0-2,0.9-2,2s0.9,2,2,2c1.1,0,2-0.9,2-2S25.2,37.6,24.1,37.6z M24.1,40.1
		c-0.3,0-0.5-0.2-0.5-0.5c0-0.3,0.2-0.5,0.5-0.5s0.5,0.2,0.5,0.5C24.6,39.9,24.4,40.1,24.1,40.1z"/>
	<path class="st8" d="M30.9,37.6c-1.1,0-2,0.9-2,2s0.9,2,2,2c1.1,0,2-0.9,2-2S32,37.6,30.9,37.6z M30.9,40.1c-0.3,0-0.5-0.2-0.5-0.5
		c0-0.3,0.2-0.5,0.5-0.5c0.3,0,0.5,0.2,0.5,0.5C31.4,39.9,31.2,40.1,30.9,40.1z"/>
	<path class="st8" d="M37.8,37.6c-1.1,0-2,0.9-2,2s0.9,2,2,2c1.1,0,2-0.9,2-2S38.8,37.6,37.8,37.6z M37.8,40.1
		c-0.3,0-0.5-0.2-0.5-0.5c0-0.3,0.2-0.5,0.5-0.5s0.5,0.2,0.5,0.5C38.2,39.9,38,40.1,37.8,40.1z"/>
	<path class="st8" d="M44.6,37.6c-1.1,0-2,0.9-2,2s0.9,2,2,2c1.1,0,2-0.9,2-2S45.7,37.6,44.6,37.6z M44.6,40.1
		c-0.3,0-0.5-0.2-0.5-0.5c0-0.3,0.2-0.5,0.5-0.5c0.3,0,0.5,0.2,0.5,0.5C45.1,39.9,44.8,40.1,44.6,40.1z"/>
	<path class="st8" d="M51.4,37.6c-1.1,0-2,0.9-2,2s0.9,2,2,2c1.1,0,2-0.9,2-2S52.5,37.6,51.4,37.6z M51.4,40.1
		c-0.3,0-0.5-0.2-0.5-0.5c0-0.3,0.2-0.5,0.5-0.5c0.3,0,0.5,0.2,0.5,0.5C51.9,39.9,51.7,40.1,51.4,40.1z"/>
	<path class="st8" d="M58.2,37.6c-1.1,0-2,0.9-2,2s0.9,2,2,2c1.1,0,2-0.9,2-2S59.3,37.6,58.2,37.6z M58.2,40.1
		c-0.3,0-0.5-0.2-0.5-0.5c0-0.3,0.2-0.5,0.5-0.5c0.3,0,0.5,0.2,0.5,0.5C58.7,39.9,58.5,40.1,58.2,40.1z"/>
	<path class="st8" d="M65,37.6c-1.1,0-2,0.9-2,2s0.9,2,2,2c1.1,0,2-0.9,2-2S66.1,37.6,65,37.6z M65,40.1c-0.3,0-0.5-0.2-0.5-0.5
		c0-0.3,0.2-0.5,0.5-0.5c0.3,0,0.5,0.2,0.5,0.5C65.5,39.9,65.3,40.1,65,40.1z"/>
</g>
</svg>
