<?xml version="1.0" encoding="utf-8"?>
<!-- Generator: Adobe Illustrator 17.0.0, SVG Export Plug-In . SVG Version: 6.00 Build 0)  -->
<!DOCTYPE svg PUBLIC "-//W3C//DTD SVG 1.1//EN" "http://www.w3.org/Graphics/SVG/1.1/DTD/svg11.dtd">
<svg version="1.1" id="Capa_1" xmlns="http://www.w3.org/2000/svg" xmlns:xlink="http://www.w3.org/1999/xlink" x="0px" y="0px"
	 width="76px" height="76px" viewBox="0 0 76 76" style="enable-background:new 0 0 76 76;" xml:space="preserve">
<style type="text/css">
	.st0{fill:#85432A;}
	.st1{fill:#E60000;}
	.st2{fill:none;stroke:#F2F2F2;stroke-width:2;stroke-linecap:round;stroke-linejoin:round;stroke-miterlimit:10;}
	.st3{fill:#F2F2F2;}
	.st4{fill:#FFFFFF;}
	.st5{fill:#F10D13;}
</style>
<g>
	<path class="st3" d="M49.6,24.2c-0.2-0.5-0.6-0.9-1.2-1l-6.3-0.9l-2.8-5.7c-0.2-0.5-0.7-0.8-1.3-0.8h0c-0.6,0-1.1,0.3-1.3,0.8
		l-2.8,5.7l-6.3,0.9c-0.5,0.1-1,0.5-1.2,1c-0.2,0.5,0,1.1,0.4,1.5l4.6,4.5l-1.1,6.3c-0.1,0.5,0.1,1.1,0.6,1.4
		c0.3,0.2,0.6,0.3,0.9,0.3c0.2,0,0.5-0.1,0.7-0.2l5.6-3l5.6,3c0.5,0.3,1.1,0.2,1.5-0.1c0.4-0.3,0.7-0.9,0.6-1.4l-1.1-6.3l4.6-4.5
		C49.6,25.3,49.8,24.7,49.6,24.2 M42.1,28.6c-0.3,0.3-0.5,0.8-0.4,1.3l0.7,4.1l-3.7-2c-0.4-0.2-0.9-0.2-1.4,0l-3.7,2l0.7-4.1
		c0.1-0.5-0.1-1-0.4-1.3l-3-2.9l4.2-0.6c0.5-0.1,0.9-0.4,1.1-0.8l1.9-3.8l1.9,3.8c0.2,0.4,0.6,0.7,1.1,0.8l4.2,0.6L42.1,28.6z"/>
	<path class="st3" d="M70.6,64.6l-12-20.9c3.6-4.5,5.8-10.3,5.8-16.5C64.4,12.7,52.6,0.9,38,0.9S11.6,12.7,11.6,27.3
		c0,6.2,2.2,12,5.8,16.5l-12,20.9c-0.3,0.5-0.3,1.1,0.1,1.5c0.3,0.5,0.9,0.7,1.4,0.6l9.4-1.3l3.6,8.7c0.2,0.5,0.7,0.9,1.2,0.9
		c0,0,0.1,0,0.1,0c0.5,0,1-0.3,1.3-0.7l12.1-21c0,0,0,0,0,0c1.1,0.2,2.3,0.2,3.5,0.2c1.2,0,2.4-0.1,3.5-0.2c0,0,0,0,0,0l12.1,21
		c0.3,0.5,0.7,0.7,1.3,0.7c0,0,0.1,0,0.1,0c0.6,0,1-0.4,1.2-0.9l3.6-8.7l9.4,1.3c0.5,0.1,1.1-0.2,1.4-0.6
		C70.9,65.7,70.9,65.1,70.6,64.6 M21.4,70.4l-2.6-6.4l2.3-3.8c0.4-0.7,0.2-1.6-0.5-2s-1.6-0.2-2,0.5l-2.4,3.9l-6.9,0.9L19.4,46
		c3.3,3.3,7.4,5.7,12.1,6.8L21.4,70.4z M14.5,27.3C14.5,14.3,25,3.8,38,3.8s23.5,10.5,23.5,23.5S51,50.8,38,50.8
		S14.5,40.2,14.5,27.3 M59.8,62.6l-2.4-3.9c-0.4-0.7-1.3-0.9-2-0.5c-0.7,0.4-0.9,1.3-0.5,2l2.3,3.8l-2.6,6.4L44.5,52.9
		c4.6-1.2,8.8-3.6,12.1-6.8l10.1,17.5L59.8,62.6z"/>
	<path class="st3" d="M55,35.4c1.2-2.5,1.8-5.3,1.8-8.1c0-10.4-8.5-18.9-18.9-18.9c-3.2,0-6.4,0.8-9.2,2.4c-0.7,0.4-0.9,1.3-0.6,2
		c0.4,0.7,1.3,0.9,2,0.6c2.4-1.3,5.1-2,7.8-2c8.8,0,16,7.2,16,16c0,2.4-0.5,4.7-1.5,6.9c-0.3,0.7,0,1.6,0.7,1.9
		c0.2,0.1,0.4,0.1,0.6,0.1C54.3,36.2,54.8,35.9,55,35.4"/>
	<path class="st3" d="M49.4,38.4L49.4,38.4c-0.6,0.6-0.6,1.5,0,2.1c0.3,0.3,0.6,0.4,1,0.4c0.4,0,0.8-0.1,1-0.4l0,0
		c0.6-0.6,0.5-1.5,0-2.1C50.9,37.8,50,37.8,49.4,38.4"/>
	<path class="st3" d="M45.7,41.3c-2.3,1.3-5,2-7.7,2c-8.8,0-16-7.2-16-16c0-2.3,0.5-4.5,1.4-6.6c0.3-0.7,0-1.6-0.7-1.9
		c-0.7-0.3-1.6,0-1.9,0.7c-1.1,2.5-1.7,5.1-1.7,7.8c0,10.4,8.5,18.9,18.9,18.9c3.2,0,6.3-0.8,9.1-2.3c0.7-0.4,1-1.3,0.6-2
		C47.3,41.1,46.4,40.9,45.7,41.3"/>
	<path class="st3" d="M25.2,16.9c0.4,0,0.8-0.2,1.1-0.5l0,0c0.5-0.6,0.5-1.5-0.1-2.1c-0.6-0.5-1.5-0.5-2.1,0.1l0,0
		c-0.5,0.6-0.5,1.5,0.1,2.1C24.5,16.8,24.9,16.9,25.2,16.9"/>
</g>
</svg>
