<?xml version="1.0" encoding="utf-8"?>
<!-- Generator: Adobe Illustrator 17.0.0, SVG Export Plug-In . SVG Version: 6.00 Build 0)  -->
<!DOCTYPE svg PUBLIC "-//W3C//DTD SVG 1.1//EN" "http://www.w3.org/Graphics/SVG/1.1/DTD/svg11.dtd">
<svg version="1.1" id="Capa_1" xmlns="http://www.w3.org/2000/svg" xmlns:xlink="http://www.w3.org/1999/xlink" x="0px" y="0px"
	 width="76px" height="76px" viewBox="0 0 76 76" style="enable-background:new 0 0 76 76;" xml:space="preserve">
<style type="text/css">
	.st0{fill:#85432A;}
	.st1{fill:#E60000;}
	.st2{fill:none;stroke:#F2F2F2;stroke-width:2;stroke-linecap:round;stroke-linejoin:round;stroke-miterlimit:10;}
	.st3{fill:#F2F2F2;}
	.st4{fill:#FFFFFF;}
	.st5{fill:#F10D13;}
	.st6{fill:none;stroke:#999999;stroke-width:2;stroke-linecap:round;stroke-linejoin:round;stroke-miterlimit:10;}
	.st7{fill:none;stroke:#FFB819;stroke-width:1.5;stroke-linecap:round;stroke-linejoin:round;stroke-miterlimit:10;}
	.st8{fill:#FFB819;}
	.st9{fill:#3FAE2A;}
	.st10{fill:#FDB07C;}
	.st11{fill:#19BBFF;}
	.st12{fill:#FF4D6A;}
	.st13{fill:#A666CE;}
</style>
<g>
	<path class="st13" d="M67.6,44.8c1-1,1.1-2.6,0.3-3.7c0.3-0.1,0.5-0.3,0.7-0.5l0,0c1.1-1.1,1.1-2.9,0-4.1l-6.9-6.9
		c-0.8-0.8-1.7-1.4-2.7-1.9l-1-0.4c0,0,0,0,0,0l-8.8-8.8c0.4-0.4,0.6-1,0.6-1.6c0-0.8-0.3-1.6-0.9-2.2l0,0c-0.3-0.3-0.6-0.5-0.9-0.6
		c0.4-1,0.2-2.3-0.6-3.1l0,0c-0.5-0.5-1.1-0.8-1.8-0.8c-0.1-0.7-0.3-1.3-0.8-1.8l0,0c-1-1-2.6-1.1-3.7-0.3c-0.1-0.3-0.3-0.5-0.5-0.7
		l0,0c-1.1-1.1-2.9-1.1-4.1,0l-6.9,6.9c-0.8,0.8-1.4,1.7-1.9,2.7l-0.4,1c0,0,0,0,0,0l-8.8,8.8c-0.4-0.3-1-0.6-1.6-0.6
		c-0.8,0-1.6,0.3-2.2,0.9l0,0c-0.3,0.3-0.5,0.6-0.6,0.9c-1-0.4-2.3-0.2-3.1,0.6l0,0c-0.5,0.5-0.8,1.1-0.8,1.8
		c-0.7,0.1-1.3,0.3-1.8,0.8l0,0c-1,1-1.1,2.6-0.3,3.7c-0.3,0.1-0.5,0.3-0.7,0.5l0,0c-1.1,1.1-1.1,2.9,0,4.1l6.9,6.9
		c0.8,0.8,1.7,1.4,2.7,1.9l1,0.4c0,0,0,0,0,0l8.8,8.8c-0.4,0.4-0.6,1-0.6,1.6c0,0.8,0.3,1.6,0.9,2.2l0,0c0.3,0.3,0.6,0.5,0.9,0.6
		c-0.4,1-0.2,2.3,0.6,3.1l0,0c0.5,0.5,1.1,0.8,1.8,0.8c0.1,0.7,0.3,1.3,0.8,1.8l0,0c1,1,2.6,1.1,3.7,0.3c0.1,0.3,0.3,0.5,0.5,0.7
		l0,0c1.1,1.1,2.9,1.1,4.1,0l6.9-6.9c0.8-0.8,1.4-1.7,1.9-2.7l0.4-1c0,0,0,0,0,0l8.8-8.8c0.4,0.4,1,0.6,1.6,0.6
		c0.8,0,1.6-0.3,2.2-0.9l0,0c0.3-0.3,0.5-0.6,0.6-0.9c1,0.4,2.3,0.2,3.1-0.6l0,0c0.5-0.5,0.8-1.1,0.8-1.8
		C66.5,45.6,67.1,45.3,67.6,44.8L67.6,44.8z M51.9,52l-4.5-4.5c-0.4-0.4-1-0.4-1.4,0c-0.4,0.4-0.4,1,0,1.4l4.5,4.5L48,56l-6.9-6.9
		l6.3-6.3c0.4,0,1.2,0.1,1.9,0.2c1.8,0.4,3.6,1.4,6.8,4.9L51.9,52z M39.4,47.9l-4.6-1.8l-6.7-6.7l1.8-4.6l6.8-6.8l4.6,1.8l6.7,6.7
		l-1.8,4.6L39.4,47.9z M24.1,24l4.9,4.9c0.4,0.4,1,0.4,1.4,0c0.4-0.4,0.4-1,0-1.4l-4.9-4.9L28,20l6.9,6.9l-6.3,6.3
		c-0.4,0-1.2-0.1-1.9-0.2c-1.8-0.4-3.6-1.4-6.8-4.9L24.1,24z M47.9,19.9l4.1,4.1l-2.1,2.1c-0.4,0.4-0.4,1,0,1.4c0.4,0.4,1,0.4,1.4,0
		l2.1-2.1l2.6,2.6l-5.5,5.5c0,0,0,0,0,0l-1.4,1.4l-6.3-6.3c0-0.4,0.1-1.2,0.2-1.9C43.4,25,44.4,23.1,47.9,19.9 M37.9,8.7
		c0.3-0.3,0.9-0.3,1.2,0l0,0c0.3,0.3,0.3,0.9,0,1.2l-1.9,1.9c-0.4,0.4-0.4,1,0,1.4c0.4,0.4,1,0.4,1.4,0l1.9-1.9l1.6-1.6
		c0.3-0.3,0.9-0.3,1.2,0l0,0c0.3,0.3,0.3,0.9,0,1.2l-3.5,3.5c-0.4,0.4-0.4,1,0,1.4c0.4,0.4,1,0.4,1.4,0l3.5-3.5
		c0.3-0.3,0.9-0.3,1.2,0l0,0c0.3,0.3,0.3,0.9,0,1.2L45,14.8l-2.4,2.4c-0.4,0.4-0.4,1,0,1.4c0.4,0.4,1,0.4,1.4,0l2.4-2.4
		c0.3-0.3,0.9-0.3,1.2,0l0,0c0.2,0.2,0.3,0.4,0.3,0.7c0,0.1,0,0.3-0.2,0.5c-4.2,3.6-6,6.1-6.7,8.9c-0.1,0.4-0.1,0.7-0.2,1
		c-0.1,0-0.2,0.1-0.3,0.1L36.9,26l-7.6-7.6l0.3-0.7c0.3-0.8,0.8-1.5,1.4-2.1L37.9,8.7z M15.6,44.9l-6.9-6.9c-0.3-0.3-0.3-0.9,0-1.2
		l0,0c0.3-0.3,0.9-0.3,1.2,0l1.9,1.9c0.4,0.4,1,0.4,1.4,0c0.4-0.4,0.4-1,0-1.4l-1.9-1.9l-1.6-1.6c-0.3-0.3-0.3-0.9,0-1.2l0,0
		c0.3-0.3,0.9-0.3,1.2,0l3.5,3.5c0.4,0.4,1,0.4,1.4,0c0.4-0.4,0.4-1,0-1.4l-3.5-3.5c-0.3-0.3-0.3-0.9,0-1.2l0,0
		c0.3-0.3,0.9-0.3,1.2,0l1.1,1.1l2.4,2.4c0.4,0.4,1,0.4,1.4,0c0.4-0.4,0.4-1,0-1.4l-2.4-2.4c-0.3-0.3-0.3-0.9,0-1.2l0,0
		c0.2-0.2,0.4-0.3,0.7-0.3c0.1,0,0.3,0,0.5,0.2c3.6,4.2,6.1,6,8.9,6.7c0.4,0.1,0.7,0.1,1,0.2c0,0.1,0.1,0.2,0.1,0.3L26,39.1
		l-7.6,7.6l-0.7-0.3C16.9,46,16.2,45.5,15.6,44.9 M26.9,41.1l6.3,6.3c0,0.4-0.1,1.2-0.2,1.9c-0.4,1.8-1.4,3.6-4.9,6.8L24,51.9
		l2.1-2.1c0.4-0.4,0.4-1,0-1.4c-0.4-0.4-1-0.4-1.4,0l-2.1,2.1L20,47.9L26.9,41.1z M38.1,67.3c-0.3,0.3-0.9,0.3-1.2,0l0,0
		c-0.3-0.3-0.3-0.9,0-1.2l1.9-1.9c0.4-0.4,0.4-1,0-1.4c-0.4-0.4-1-0.4-1.4,0l-1.9,1.9l-1.6,1.6c-0.3,0.3-0.9,0.3-1.2,0l0,0
		c-0.3-0.3-0.3-0.9,0-1.2l3.5-3.5c0.4-0.4,0.4-1,0-1.4c-0.4-0.4-1-0.4-1.4,0l-3.5,3.5c-0.3,0.3-0.9,0.3-1.2,0l0,0
		c-0.3-0.3-0.3-0.9,0-1.2l1.1-1.1l2.4-2.4c0.4-0.4,0.4-1,0-1.4c-0.4-0.4-1-0.4-1.4,0l-2.4,2.4c-0.3,0.3-0.9,0.3-1.2,0l0,0
		c-0.2-0.2-0.3-0.4-0.3-0.7c0-0.1,0-0.3,0.2-0.5c4.2-3.6,6-6.1,6.7-8.9c0.1-0.4,0.1-0.7,0.2-1c0.1,0,0.2-0.1,0.3-0.1l3.6,1.4
		l7.6,7.6l-0.3,0.7c-0.3,0.8-0.8,1.5-1.4,2.1L38.1,67.3z M59.8,47.6c-0.2,0.2-0.4,0.3-0.7,0.3c-0.1,0-0.3,0-0.5-0.2
		c-3.6-4.2-6.1-6-8.9-6.7c-0.4-0.1-0.9-0.2-1.3-0.2l1.5-3.9l7.6-7.6l0.7,0.3c0.8,0.3,1.5,0.8,2.1,1.4l6.9,6.9c0.3,0.3,0.3,0.9,0,1.2
		l0,0c-0.3,0.3-0.9,0.3-1.2,0l-1.9-1.9c-0.4-0.4-1-0.4-1.4,0c-0.4,0.4-0.4,1,0,1.4l1.9,1.9l1.6,1.6c0.3,0.3,0.3,0.9,0,1.2l0,0
		c-0.3,0.3-0.9,0.3-1.2,0l-3.5-3.5c-0.4-0.4-1-0.4-1.4,0c-0.4,0.4-0.4,1,0,1.4l3.5,3.5c0.3,0.3,0.3,0.9,0,1.2l0,0
		c-0.3,0.3-0.9,0.3-1.2,0L61.2,45l-2.4-2.4c-0.4-0.4-1-0.4-1.4,0c-0.4,0.4-0.4,1,0,1.4l2.4,2.4C60.1,46.7,60.1,47.3,59.8,47.6
		L59.8,47.6z"/>
</g>
</svg>
