<?xml version="1.0" encoding="utf-8"?>
<!-- Generator: Adobe Illustrator 17.0.0, SVG Export Plug-In . SVG Version: 6.00 Build 0)  -->
<!DOCTYPE svg PUBLIC "-//W3C//DTD SVG 1.1//EN" "http://www.w3.org/Graphics/SVG/1.1/DTD/svg11.dtd">
<svg version="1.1" id="Capa_1" xmlns="http://www.w3.org/2000/svg" xmlns:xlink="http://www.w3.org/1999/xlink" x="0px" y="0px"
	 width="76px" height="76px" viewBox="0 0 76 76" style="enable-background:new 0 0 76 76;" xml:space="preserve">
<style type="text/css">
	.st0{fill:#85432A;}
	.st1{fill:#E60000;}
	.st2{fill:none;stroke:#F2F2F2;stroke-width:2;stroke-linecap:round;stroke-linejoin:round;stroke-miterlimit:10;}
	.st3{fill:#F2F2F2;}
	.st4{fill:#FFFFFF;}
	.st5{fill:#F10D13;}
	.st6{fill:none;stroke:#999999;stroke-width:2.5;stroke-linecap:round;stroke-linejoin:round;stroke-miterlimit:10;}
	.st7{fill:none;stroke:#FFB819;stroke-width:1.5;stroke-linecap:round;stroke-linejoin:round;stroke-miterlimit:10;}
	.st8{fill:#FFB819;}
	.st9{fill:#3FAE2A;}
	.st10{fill:#FDB07C;}
	.st11{fill:#19BBFF;}
	.st12{fill:#FF4D6A;}
	.st13{fill:#A666CE;}
</style>
<g>
	<path class="st6" d="M22.8,53.4c-2-2-4.4-3-5.3-2.1c-0.9,0.9,0,3.3,2.1,5.3c2,2,4.4,3,5.3,2.1C25.8,57.8,24.9,55.4,22.8,53.4z
		 M54.6,12.2c2.5,2.5,2.5,6.5,0,9c2.5-2.5,6.5-2.5,9,0c2.5,2.5,2.5,6.5,0,9c-2.5,2.5-6.5,2.5-9,0c-0.4-0.4-0.7-0.8-1-1.3l-1.4,1.4
		c0,0.1-0.1,0.2-0.2,0.3c-5,5.8-6,23.1-12.8,29.9c-8.2,8.2-16.2,5.7-22.7-0.8s-9-14.5-0.8-22.7c6.4-6.4,22.8-8,28.8-12.4l2.3-2.3
		c-0.5-0.3-0.9-0.6-1.3-1c-2.5-2.5-2.5-6.5,0-9C48.1,9.7,52.1,9.7,54.6,12.2z"/>
</g>
</svg>
