<?xml version="1.0" encoding="utf-8"?>
<!-- Generator: Adobe Illustrator 17.0.0, SVG Export Plug-In . SVG Version: 6.00 Build 0)  -->
<!DOCTYPE svg PUBLIC "-//W3C//DTD SVG 1.1//EN" "http://www.w3.org/Graphics/SVG/1.1/DTD/svg11.dtd">
<svg version="1.1" id="Capa_1" xmlns="http://www.w3.org/2000/svg" xmlns:xlink="http://www.w3.org/1999/xlink" x="0px" y="0px"
	 width="76px" height="76px" viewBox="0 0 76 76" style="enable-background:new 0 0 76 76;" xml:space="preserve">
<style type="text/css">
	.st0{fill:#85432A;}
	.st1{fill:#E60000;}
	.st2{fill:none;stroke:#F2F2F2;stroke-width:2;stroke-linecap:round;stroke-linejoin:round;stroke-miterlimit:10;}
	.st3{fill:#F2F2F2;}
	.st4{fill:#FFFFFF;}
	.st5{fill:#F10D13;}
	.st6{fill:none;stroke:#999999;stroke-width:2;stroke-linecap:round;stroke-linejoin:round;stroke-miterlimit:10;}
	.st7{fill:none;stroke:#FFB819;stroke-width:1.5;stroke-linecap:round;stroke-linejoin:round;stroke-miterlimit:10;}
	.st8{fill:#FFB819;}
	.st9{fill:#3FAE2A;}
	.st10{fill:#FDB07C;}
	.st11{fill:#19BBFF;}
	.st12{fill:#FF4D6A;}
	.st13{fill:#A666CE;}
</style>
<g>
	<path class="st12" d="M45.2,43.8v-2.6c1.4-0.1,3.9-0.5,5.6-2.2c2.4-2.4,2.3-6.5,2.2-6.6c0-0.5-0.4-0.9-0.9-0.9
		c-0.2,0-4.2-0.2-6.6,2.2c-0.1,0.1-0.3,0.3-0.4,0.4V31c1.4-0.1,3.9-0.5,5.6-2.2c2.4-2.4,2.3-6.5,2.2-6.6c0-0.5-0.4-0.9-0.9-0.9
		c-0.2,0-4.2-0.2-6.6,2.2c-0.1,0.1-0.3,0.3-0.4,0.4v-2.8l5.2-5.1c0.8-0.8,1.3-1.9,1.3-3.1c0-1.2-0.5-2.2-1.3-3.1c0,0,0,0,0,0
		c-1.7-1.7-4.4-1.7-6.1,0c-1.7-1.6-4.5-1.6-6.1,0c-0.8,0.8-1.3,1.9-1.3,3.1c0,1.2,0.5,2.2,1.3,3.1l5.2,5.1V24
		c-0.1-0.1-0.3-0.3-0.4-0.4c-2.4-2.4-6.5-2.3-6.6-2.2c-0.5,0-0.9,0.4-0.9,0.9c0,0.2-0.2,4.2,2.2,6.6c1.7,1.7,4.3,2.1,5.6,2.2v3.2
		c-0.1-0.1-0.3-0.3-0.4-0.4c-2.4-2.4-6.4-2.3-6.6-2.2c-0.5,0-0.9,0.4-0.9,0.9c0,0.2-0.2,4.2,2.2,6.6c1.7,1.7,4.3,2.1,5.6,2.2v2.6
		H45.2z M46.9,35.1c1.3-1.3,3.2-1.6,4.3-1.7c-0.1,1.1-0.4,3-1.7,4.3c-1.3,1.3-3.2,1.6-4.3,1.7C45.3,38.2,45.6,36.3,46.9,35.1
		 M46.9,24.8c1.3-1.3,3.2-1.6,4.3-1.7c-0.1,1.1-0.4,3-1.7,4.3c-1.3,1.3-3.2,1.6-4.3,1.7C45.3,28,45.6,26.1,46.9,24.8 M39,27.5
		c-1.3-1.3-1.6-3.2-1.7-4.3c1.1,0.1,3,0.4,4.3,1.7c1.3,1.3,1.6,3.2,1.7,4.3C42.2,29.1,40.2,28.7,39,27.5 M39,37.7
		c-1.3-1.3-1.6-3.2-1.7-4.3c1.1,0.1,3,0.4,4.3,1.7c1.3,1.3,1.6,3.2,1.7,4.3C42.2,39.3,40.2,38.9,39,37.7 M38.7,13
		c0-0.7,0.3-1.3,0.7-1.7c0.5-0.5,1.1-0.7,1.8-0.7c0.6,0,1.3,0.2,1.8,0.7l0.6,0.6c0.4,0.4,0.9,0.4,1.3,0l0.6-0.6c1-1,2.6-1,3.6,0
		c0.5,0.5,0.7,1.1,0.7,1.7c0,0.7-0.3,1.3-0.7,1.7l-4.8,4.7l-4.8-4.7C38.9,14.3,38.7,13.7,38.7,13"/>
	<path class="st12" d="M61,41.9c-0.1-3.3-4.3-4.8-6.5-2.3l-5,5.8c-0.2,0.2-0.4,0.5-0.5,0.8l-0.2,0.1c-0.3-1-1-2-2.5-2.5
		c-6.7-1.9-7.5-2.3-9.4-2.1c0,0,0,0,0,0c-4.9,0.5-6.1,0.7-8.5,2.1c-1.8,1-3.5,2.2-5.2,3.6l-0.3-0.4c-0.8-0.9-2.1-1-2.9-0.2L12.8,53
		c-0.8,0.7-0.9,2-0.2,2.9l9.4,10.7c0.7,0.8,1.9,0.9,2.7,0.2c0,0,0,0,0,0l7.1-6.1c0.9-0.8,1-2.1,0.2-2.9l-0.3-0.3l0.5-0.4
		c1.2-1,3-1.4,4.9-0.8l4.7,1.3c0.5,0.2,1.1-0.2,1.3-0.7c0.2-0.5-0.2-1.1-0.7-1.3l-4.7-1.3c-2.5-0.7-5-0.2-6.8,1.3l-0.5,0.4L24.5,49
		c1.6-1.3,3.2-2.4,4.9-3.4c2.1-1.2,2.8-1.3,7.7-1.9c1.1-0.1,1.9,0.1,5.8,1.2c3,0.9,3.7,0.9,3.9,1.8c0.1,0.4,0,0.8,0,0.8h0
		c-0.1,0.2-0.1,0.4-0.2,0.6c-0.2,0.2-0.4,0.4-0.9,0.3c-1.9-0.3-6.5-0.9-6.6-0.9c-0.6-0.1-1.1,0.3-1.1,0.9c-0.1,0.6,0.3,1.1,0.9,1.1
		c0,0,4.6,0.6,6.6,0.9c1.6,0.2,2.8-0.6,3.3-1.9c0.1,0,10.3-4.2,10.3-4.3c1.1-0.5,2.1-0.7,2.7,0.4c0.7,1.3-0.6,2.3-0.9,2.5L47.2,55
		c0,0,0,0,0,0c0,0,0,0,0,0c-0.2,0.1-0.5,0.3-0.7,0.4c-0.5,0.2-0.7,0.8-0.5,1.3c0.2,0.5,0.8,0.7,1.3,0.5c0.3-0.2,0.7-0.3,1-0.5
		c0,0,13.6-7.8,13.6-7.8C65.5,46.5,63.8,42.4,61,41.9 M23.4,65.2l-9.3-10.6l7.1-6.1c0,0,0,0,0,0c0,0,0,0,0,0c1,1.1,8.2,9.5,9.2,10.6
		c0,0,0,0,0,0C30.5,59.1,23.5,65.2,23.4,65.2 M56,41c1-1.2,2.9-0.4,2.9,1.1c0,0-6,2.5-6,2.5L56,41z"/>
</g>
</svg>
