<?xml version="1.0" encoding="utf-8"?>
<!-- Generator: Adobe Illustrator 17.0.0, SVG Export Plug-In . SVG Version: 6.00 Build 0)  -->
<!DOCTYPE svg PUBLIC "-//W3C//DTD SVG 1.1//EN" "http://www.w3.org/Graphics/SVG/1.1/DTD/svg11.dtd">
<svg version="1.1" id="Capa_1" xmlns="http://www.w3.org/2000/svg" xmlns:xlink="http://www.w3.org/1999/xlink" x="0px" y="0px"
	 width="76px" height="76px" viewBox="0 0 76 76" style="enable-background:new 0 0 76 76;" xml:space="preserve">
<style type="text/css">
	.st0{fill:#85432A;}
	.st1{fill:#E60000;}
	.st2{fill:none;stroke:#F2F2F2;stroke-width:2;stroke-linecap:round;stroke-linejoin:round;stroke-miterlimit:10;}
	.st3{fill:#F2F2F2;}
	.st4{fill:#FFFFFF;}
	.st5{fill:#F10D13;}
</style>
<g>
	<path class="st3" d="M67,33.5c7.8-8.1,6-22.9,5.9-23.6l-0.2-1.6l-1.6-0.2c-0.5-0.1-12.6-1.8-21.3,4C46,10.2,42.1,9.3,38,9.3
		s-8,0.9-11.8,2.8C17.5,6.2,5.4,8,4.8,8.1L3.2,8.3L3,9.9C2.9,10.6,1.1,25.4,9,33.5l0,0c-0.7,2.7-1.1,5.6-1.1,8.3
		c0,7.9,3.1,14.7,9,19.5c5.4,4.5,12.9,6.9,21.2,6.9s15.7-2.5,21.2-6.9c5.9-4.8,9-11.6,9-19.5C68.2,39,67.8,36.2,67,33.5L67,33.5z
		 M7.2,12.2c3-0.2,9.5-0.3,14.8,2.5c-1.9,1.4-3.7,3-5.4,4.9c-2.5,2.8-4.5,5.9-5.9,9.3C7,23.4,7,15.6,7.2,12.2L7.2,12.2z M56.4,58
		c-4.7,3.8-11.2,5.9-18.4,5.9c-7.2,0-13.8-2.1-18.4-5.9c-4.9-4-7.4-9.6-7.4-16.2c0-6.9,2.8-14,7.7-19.5c5-5.6,11.5-8.7,18.2-8.7
		c6.7,0,13.2,3.1,18.2,8.7c4.9,5.5,7.7,12.6,7.7,19.5C63.8,48.4,61.3,54,56.4,58L56.4,58z M59.4,19.5C57.8,17.6,56,16,54,14.6
		c5.3-2.7,11.8-2.7,14.8-2.5c0.1,1.4,0.1,3.5-0.1,5.9c-0.5,5.1-1.9,8.5-3.4,10.7C63.9,25.4,61.9,22.2,59.4,19.5L59.4,19.5z
		 M59.4,19.5"/>
	<path class="st3" d="M30.8,31.8c1.6,0,2.8-1.3,2.8-2.9c0-1.6-1.3-2.9-2.8-2.9c-1.6,0-2.8,1.3-2.8,2.9C28,30.5,29.3,31.8,30.8,31.8
		L30.8,31.8z M30.8,31.8"/>
	<path class="st3" d="M45.2,31.8c1.6,0,2.8-1.3,2.8-2.9c0-1.6-1.3-2.9-2.8-2.9c-1.6,0-2.9,1.3-2.9,2.9
		C42.3,30.5,43.6,31.8,45.2,31.8L45.2,31.8z M45.2,31.8"/>
	<path class="st3" d="M34.5,47.2c-0.9,0-1.7,0.8-1.7,1.7c0,0.9,0.8,1.7,1.7,1.7c0.9,0,1.7-0.8,1.7-1.7C36.2,48,35.5,47.2,34.5,47.2
		L34.5,47.2z M34.5,47.2"/>
	<path class="st3" d="M41.4,47.2c-0.9,0-1.7,0.8-1.7,1.7c0,1,0.8,1.7,1.7,1.7c0.9,0,1.7-0.8,1.7-1.7C43.1,48,42.4,47.2,41.4,47.2
		L41.4,47.2z M41.4,47.2"/>
	<path class="st3" d="M47.3,41.2c-2.5-1.9-5.8-3-9.3-3c-3.5,0-6.8,1.1-9.3,3c-2.7,2-4.1,4.8-4.1,7.8c0,3,1.5,5.7,4.1,7.8
		c2.5,1.9,5.8,3,9.3,3c3.5,0,6.8-1.1,9.3-3c2.7-2,4.1-4.8,4.1-7.8C51.4,46,49.9,43.2,47.3,41.2L47.3,41.2z M44.6,53.3
		c-1.7,1.3-4.1,2.1-6.6,2.1c-2.5,0-4.9-0.7-6.6-2.1c-1.6-1.2-2.4-2.8-2.4-4.4c0-1.6,0.9-3.2,2.4-4.4c1.7-1.3,4.1-2.1,6.6-2.1
		c2.5,0,4.9,0.7,6.6,2.1c1.6,1.2,2.4,2.8,2.4,4.4C47.1,50.6,46.2,52.1,44.6,53.3L44.6,53.3z M44.6,53.3"/>
</g>
</svg>
