<?xml version="1.0" encoding="utf-8"?>
<!-- Generator: Adobe Illustrator 17.0.0, SVG Export Plug-In . SVG Version: 6.00 Build 0)  -->
<!DOCTYPE svg PUBLIC "-//W3C//DTD SVG 1.1//EN" "http://www.w3.org/Graphics/SVG/1.1/DTD/svg11.dtd">
<svg version="1.1" id="Capa_1" xmlns="http://www.w3.org/2000/svg" xmlns:xlink="http://www.w3.org/1999/xlink" x="0px" y="0px"
	 width="268px" height="76px" viewBox="0 0 268 76" style="enable-background:new 0 0 268 76;" xml:space="preserve">
<style type="text/css">
	.st0{fill:#85432A;}
	.st1{fill:#E60000;}
</style>
<g>
	<path class="st0" d="M106.9,73.6c-0.6,0-1-0.5-1-1c0-0.6,0.5-1,1-1c0.6,0,1,0.5,1,1C108,73.1,107.5,73.6,106.9,73.6"/>
	<path class="st0" d="M117.6,70.4c0-0.7-0.5-1.2-1.3-1.2h-1.7v2.5h1.7C117.1,71.6,117.6,71.1,117.6,70.4 M113.9,74.9v-6.4h2.6
		c1.3,0,2,0.9,2,1.9c0,1.1-0.7,1.9-2,1.9h-1.8v2.6H113.9z"/>
	<path class="st0" d="M124.3,70.4c0-0.7-0.5-1.2-1.3-1.2h-1.7v2.5h1.7C123.7,71.6,124.3,71.1,124.3,70.4 M124.2,74.9l-1.6-2.6h-1.3
		v2.6h-0.8v-6.4h2.6c1.2,0,2,0.8,2,1.9c0,1.2-0.8,1.8-1.7,1.9l1.7,2.6H124.2z"/>
	<path class="st0" d="M132.7,71.7c0-1.5-0.9-2.6-2.4-2.6c-1.5,0-2.4,1.1-2.4,2.6c0,1.5,0.9,2.6,2.4,2.6
		C131.7,74.3,132.7,73.2,132.7,71.7 M127.1,71.7c0-1.9,1.3-3.3,3.2-3.3c1.9,0,3.2,1.4,3.2,3.3c0,1.9-1.3,3.3-3.2,3.3
		C128.4,75,127.1,73.6,127.1,71.7"/>
	<path class="st0" d="M140.4,71.7c0-1.4-0.9-2.5-2.5-2.5h-1.4v5h1.4C139.5,74.2,140.4,73,140.4,71.7 M135.7,74.9v-6.4h2.2
		c2,0,3.3,1.4,3.3,3.2c0,1.8-1.3,3.2-3.3,3.2H135.7z"/>
	<path class="st0" d="M143.4,72.4v-3.9h0.8v3.9c0,1.2,0.6,1.9,1.8,1.9c1.2,0,1.8-0.7,1.8-1.9v-3.9h0.8v3.9c0,1.6-0.9,2.6-2.6,2.6
		C144.3,75,143.4,74,143.4,72.4"/>
	<path class="st0" d="M150.9,71.7c0-2,1.5-3.3,3.3-3.3c1.1,0,1.9,0.5,2.4,1.3L156,70c-0.4-0.6-1-0.9-1.8-0.9c-1.4,0-2.5,1.1-2.5,2.6
		c0,1.5,1.1,2.6,2.5,2.6c0.7,0,1.4-0.4,1.8-0.9l0.7,0.4c-0.5,0.7-1.3,1.3-2.5,1.3C152.4,75,150.9,73.6,150.9,71.7"/>
	<polygon class="st0" points="160.3,74.9 160.3,69.2 158.2,69.2 158.2,68.4 163.1,68.4 163.1,69.2 161.1,69.2 161.1,74.9 	"/>
	<path class="st0" d="M170.2,71.7c0-1.5-0.9-2.6-2.4-2.6c-1.4,0-2.4,1.1-2.4,2.6c0,1.5,0.9,2.6,2.4,2.6
		C169.2,74.3,170.2,73.2,170.2,71.7 M164.6,71.7c0-1.9,1.3-3.3,3.2-3.3c1.9,0,3.2,1.4,3.2,3.3c0,1.9-1.3,3.3-3.2,3.3
		C165.9,75,164.6,73.6,164.6,71.7"/>
	<path class="st0" d="M172.8,74l0.5-0.6c0.4,0.5,1.1,0.9,2,0.9c1.1,0,1.5-0.6,1.5-1.1c0-1.7-3.8-0.7-3.8-3c0-1.1,0.9-1.8,2.2-1.8
		c1,0,1.7,0.3,2.3,0.9l-0.5,0.6c-0.5-0.5-1.2-0.8-1.9-0.8c-0.8,0-1.3,0.4-1.3,1c0,1.5,3.8,0.6,3.8,3c0,0.9-0.6,1.9-2.4,1.9
		C174.2,75,173.4,74.6,172.8,74"/>
	<path class="st0" d="M183.1,71.7c0-2,1.5-3.3,3.3-3.3c1.1,0,1.9,0.5,2.4,1.3l-0.7,0.4c-0.4-0.6-1-0.9-1.8-0.9
		c-1.4,0-2.5,1.1-2.5,2.6c0,1.5,1.1,2.6,2.5,2.6c0.7,0,1.4-0.4,1.8-0.9l0.7,0.4c-0.5,0.7-1.3,1.3-2.5,1.3
		C184.5,75,183.1,73.6,183.1,71.7"/>
	<path class="st0" d="M193.1,67.8h-0.6l1.4-1.4h0.8L193.1,67.8z M193.2,69.3l-1.4,3.5h2.7L193.2,69.3z M195.4,74.9l-0.6-1.4h-3.2
		l-0.6,1.4h-0.9l2.6-6.4h1l2.6,6.4H195.4z"/>
	<path class="st0" d="M201.9,70.4c0-0.7-0.5-1.2-1.3-1.2h-1.7v2.5h1.7C201.4,71.6,201.9,71.1,201.9,70.4 M201.8,74.9l-1.6-2.6h-1.3
		v2.6h-0.8v-6.4h2.6c1.2,0,2,0.8,2,1.9c0,1.2-0.8,1.8-1.7,1.9l1.7,2.6H201.8z"/>
	<polygon class="st0" points="209.5,74.9 205.8,69.7 205.8,74.9 205,74.9 205,68.4 205.8,68.4 209.5,73.5 209.5,68.4 210.3,68.4 
		210.3,74.9 	"/>
	<rect x="212.8" y="68.4" class="st0" width="0.8" height="6.4"/>
	<path class="st0" d="M215.8,71.7c0-2,1.5-3.3,3.3-3.3c1.1,0,1.9,0.5,2.4,1.3l-0.7,0.4c-0.4-0.6-1-0.9-1.8-0.9
		c-1.4,0-2.5,1.1-2.5,2.6c0,1.5,1.1,2.6,2.5,2.6c0.7,0,1.4-0.4,1.8-0.9l0.7,0.4c-0.5,0.7-1.3,1.3-2.5,1.3
		C217.2,75,215.8,73.6,215.8,71.7"/>
	<path class="st0" d="M228.8,71.7c0-1.5-0.9-2.6-2.4-2.6c-1.5,0-2.4,1.1-2.4,2.6c0,1.5,0.9,2.6,2.4,2.6
		C227.9,74.3,228.8,73.2,228.8,71.7 M223.3,71.7c0-1.9,1.3-3.3,3.2-3.3c1.9,0,3.2,1.4,3.2,3.3c0,1.9-1.3,3.3-3.2,3.3
		C224.6,75,223.3,73.6,223.3,71.7"/>
	<path class="st0" d="M231.5,74l0.5-0.6c0.4,0.5,1.1,0.9,2,0.9c1.2,0,1.5-0.6,1.5-1.1c0-1.7-3.8-0.7-3.8-3c0-1.1,0.9-1.8,2.2-1.8
		c1,0,1.7,0.3,2.3,0.9l-0.5,0.6c-0.5-0.5-1.2-0.8-1.9-0.8c-0.8,0-1.3,0.4-1.3,1c0,1.5,3.8,0.6,3.8,3c0,0.9-0.6,1.9-2.4,1.9
		C232.9,75,232,74.6,231.5,74"/>
	<path class="st0" d="M243,73.6c-0.6,0-1-0.5-1-1c0-0.6,0.5-1,1-1c0.6,0,1,0.5,1,1C244,73.1,243.5,73.6,243,73.6"/>
	<path class="st1" d="M194.6,24.9c3,0,5.5-2.2,5.5-5s-2.5-5.1-5.5-5.1c-3,0-5.4,2.3-5.4,5.1S191.6,24.9,194.6,24.9"/>
	<path class="st1" d="M112.9,49.1c-1.9,0-4.1,1-4.1,3.7c0,1.5,0.8,2,1.2,2c-0.9,1.1-3.9,1.4-7.1,1.4c-2.3,0-4.8-0.1-6.6-0.1
		L120,12.4H96.4c-5.5,0-8.4,3.4-8.4,6.6c0,1.8,0.9,3.8,3.5,3.8c1.6,0,4-0.8,4-3.6c0-1.5-0.7-2-1.2-2c0-1.1,3.1-1.4,6.3-1.4
		c2.3,0,4.7,0.1,6.2,0.1l-24,44.3h24.8c5.5,0,8.8-4.1,8.8-7.4C116.4,51,115.4,49.1,112.9,49.1"/>
	<path class="st1" d="M252.5,48.8c-0.8,3.7-3.7,5.6-5.7,5.6c-1.2,0-3.4-0.1-3.4-5c0-6,3.8-17.4,9.6-17.4c2.2,0,2.8,1.7,2.8,2.4
		L252.5,48.8z M163.5,48.8v0.3c-0.9,3.5-3.7,5.3-5.6,5.3c-1.2,0-3.4-0.1-3.4-5c0-6,3.8-17.4,9.6-17.4c2.1,0,2.7,1.5,2.8,2.2
		L163.5,48.8z M137,31.1c1.3,0,1.7,1,1.7,2.6c0,5.3-4.7,10.2-9.9,10.5C130.1,37.9,133.5,31.1,137,31.1 M261.9,52
		c0-0.6,0.1-1.2,0.3-2l4.9-21.6h-9.9l-0.8,3.4v-0.4c0-1.8-1.6-3.2-5.6-3.2c-11.9,0-17.6,13.7-17.6,22.3c0,0.1,0,0.2,0,0.3
		c-1.2,2.3-2.5,3.8-4.9,3.8c-2.1,0-2.7-1.1-2.7-2.7c0-3.6,3.3-11.3,3.3-16.4c0-5.1-3.2-7.2-7.6-7.2c-2.1,0-5.1,0.5-8,3.6l0.8-3.3
		h-9.9l-4.7,20.4c-1,3.2-3.5,5.6-6.2,5.6c-1.9,0-2.8-0.6-2.8-2.4c0-0.6,0.1-1.2,0.3-2l4.9-21.6h-9.9l-4.7,20.4
		c-1,3.2-2.9,5.6-5.6,5.6c-1.9,0-2.8-0.6-2.8-2.4c0-0.6,0.1-1.2,0.3-2l7.9-34.4l-10.2,1.3l-3.4,14.6v-0.3c0-1.8-1.6-3.2-5.6-3.2
		c-11.7,0-17.3,13-17.6,21.6c-3.1,3.2-6.3,5.5-11.3,5.5c-3.3,0-4.9-1-4.9-5.3c0-0.8,0.1-1.7,0.1-2.5c8.2-0.4,15.8-6.1,15.8-13.4
		c0-3.2-1.4-6.1-7.5-6.1c-14.1,0-18.5,15.3-18.5,22.6c0,7.2,4.3,10.1,10.7,10.1c7,0,12.1-3.5,15.8-7.8c0.9,5.7,4.8,7.8,8.9,7.8
		c4.9,0,8.1-2.9,10.2-5.9c0.5,3.6,3,5.5,6.7,5.5c2.8,0,7-0.6,10.5-5.3c0.7,3.9,3.6,5.7,7.2,5.7c2.5,0,6.3-0.6,9.8-4.1l-0.9,3.8h9.9
		l4.7-20.4c1-3.2,2.9-5.9,5.4-5.9c1.6,0,2.5,1.1,2.5,3.2c0,4.1-3.1,11.9-3.1,16.2c0,3.6,2.1,7.2,8.1,7.2c2.7,0,6.4-0.8,9.7-5.6
		c1.4,4.1,4.9,5.6,8.4,5.6c4.9,0,8.2-3,10.2-5.9c0.5,3.7,3,5.9,6.7,5.9c3.7,0,5-2,6.9-6.4c-0.5,0.2-0.9,0.3-1.5,0.3
		C262.8,54.4,261.9,53.8,261.9,52"/>
	<path class="st0" d="M0.9,75l2.8,0c0-1.5,0-4.1,0.1-5.4c1-19.7,9.8-30.9,17-36.9c-1.2-1.2-2.4-2.4-2.7-3c-0.5-1.1-0.2-1.5,1-1.6
		c3.5-0.3,7-0.6,10.5-1c0.3-0.1,0.4,0.1,0.4,0.1c0.5,1,3.7,3.5,5.8,4.1c2.7,0.8,3.3-0.3,3.3-0.3s-3.9-0.2-7.7-3.9
		c-0.4-0.5-1.3-1.7-1.5-2.3c-1.2-3-1.6-6.4,0.4-9.4c1.5-2.2,3.1-3.6,5.2-5.1c1.9-1.3,3.8-2.5,5.7-3.7c1-0.7,1.5-1.2,2.2-2.4
		c0.2-0.3,0.5-0.6,0.8-0.5c0.7,0.3,0.7,0.9,0.6,1.5c-0.1,0.5-0.4,1.3-0.7,1.7c-0.7,1.1-1.2,1.8-2,2.9c-1.4,1.9-2.2,2.7-3.2,4.6
		c-0.5,0.9-0.6,1.7,0.1,3.2c0,0,0,0,0,0c0.1,0.1,0.1,0.1,0.1,0.2c1,1.3,4.4,3.7,7.6,0.5c0,0,6.6,2.1,11.9,5.1
		c0.6-0.6,1.2-1.2,1.8-1.8c0.9-0.9,1.2-2,1.2-3.3c0-1.1-0.1-2.2,0-3.3c0-0.7,0.2-1.4,0.5-2.1c0.1-0.2,0.5-0.5,0.8-0.5
		c0.4,0,0.5,0.4,0.6,0.7c0,0.3,0,0.7,0.1,1c0.3,1.7,0.8,3.4,1.6,5c1.5,3,1.2,6-1.1,8.6c-0.3,0.4-0.7,0.8-1.1,1.2v0
		c1,0.8,1.9,1.6,2.9,2.4c0.6,0.5,0.6,0.8,0,1.2c-0.4,0.2-1.4,0.4-2.4,0.6c0.5,2.5,1.4,4.2,1.4,4.2s0.6,1.1,5.3,3.1
		c0,0,1.3,0.4,1.9,2.2c0.4,1.3-0.4,1.4-0.4,2.8c-0.1,2.3-0.1,3.4-0.2,4.7c-0.1,1.3-1.3,1.1-1.3,1.1c-0.2,2.4-2.1,4.4-4,4.7
		c-3,0.6-5.9-0.5-8.3-0.5c-1,0-3.6,0.3-4.7,0.9c-2.6,1.4-2.4,2.8-6,3.3c-6.7,0.2-11.9-6.6-14.4-12.2c1.9,13.5,15.6,14.2,15.6,14.2
		s10.6,2,15.7,7.9c1.1,1.3,2.7,3.8,3.2,5.5h2.9c0,0-1.2-2.8-1.9-4c-3.3-5.4-10.7-9.6-15.2-11c0,0,0.1,0,0.1-0.1
		c0.5-0.4,0.9-0.8,1.5-1.1c0.5-0.3,2.4-0.6,3.5-0.6c0.7,0,1.5,0.1,2.5,0.3c1.2,0.2,2.5,0.4,3.9,0.4c0.8,0,1.6-0.1,2.3-0.2
		c2.7-0.5,5-2.7,5.9-5.3c1-0.7,1.7-1.8,1.7-3.2c0-0.8,0.1-1.5,0.1-2.4c0-0.6,0-1.4,0.1-2.3c0-0.1,0-0.2,0.1-0.4
		c0.2-0.6,0.7-1.7,0.2-3.3c-0.7-2.3-2.3-3.5-3.5-4c-2.5-1.1-3.6-1.8-4-2.1c-0.1-0.1-0.1-0.3-0.2-0.5c0.1,0,0.2-0.1,0.3-0.1
		c1.5-0.8,1.9-2.1,1.9-2.7c0.1-0.8-0.1-2-1.5-3.1c-0.2-0.2-0.5-0.4-0.7-0.6c2.3-3.2,2.5-6.9,0.7-10.7c-0.6-1.2-1.1-2.6-1.4-4.2
		l0-0.2c0-0.3,0-0.5-0.1-0.8c-0.4-2.3-2-3.1-3.3-3.1c-0.1,0-0.2,0-0.3,0c-1.2,0.1-2.7,0.9-3.2,2.4c-0.3,1-0.6,2-0.6,2.9
		c-0.1,0.9,0,1.7,0,2.5c0,0.3,0,0.7,0,1c0,0.8-0.3,1.1-0.5,1.4c-0.1,0.1-0.2,0.2-0.3,0.3c-5-2.6-10.2-4.3-10.5-4.3
		c-0.3-0.1-0.6-0.1-0.9-0.1c-0.7,0-1.5,0.3-2,0.8c-0.8,0.8-1.3,0.8-1.5,0.8c-0.8,0-1.7-0.7-1.9-0.9c0,0,0,0,0,0
		c-0.1-0.1-0.1-0.2-0.1-0.2c0,0,0-0.1,0.1-0.2c0.6-1.2,1.1-1.9,1.9-2.9c0.3-0.4,0.6-0.8,1-1.3c0.9-1.2,1.4-1.9,2.1-3
		c0.4-0.7,0.9-1.8,1.1-2.6c0.5-2.5-0.8-4-2.2-4.7C44.9,1.1,44.4,1,44,1c-1.2,0-2.3,0.7-3,1.8c-0.6,1-0.9,1.2-1.5,1.6
		C38.7,4.9,37.9,5.5,37,6c-1.1,0.7-2.1,1.4-3.1,2.1c-2.7,1.8-4.4,3.5-5.9,5.8c-2,3-2.4,6.6-1.1,10.7c-2.6,0.2-5.1,0.5-7.7,0.7
		l-0.3,0c-1.6,0.1-2.8,0.8-3.4,1.9c-0.4,0.8-0.8,2,0.1,3.8c0.2,0.5,0.6,0.9,1.2,1.6C9.4,39.4,2,50.9,1,69.3C1,69.3,0.9,74.5,0.9,75"
		/>
</g>
</svg>
