<?xml version="1.0" encoding="utf-8"?>
<!-- Generator: Adobe Illustrator 17.0.0, SVG Export Plug-In . SVG Version: 6.00 Build 0)  -->
<!DOCTYPE svg PUBLIC "-//W3C//DTD SVG 1.1//EN" "http://www.w3.org/Graphics/SVG/1.1/DTD/svg11.dtd">
<svg version="1.1" id="after" xmlns="http://www.w3.org/2000/svg" xmlns:xlink="http://www.w3.org/1999/xlink" x="0px" y="0px"
	 width="360px" height="180px" viewBox="0 0 360 180" style="enable-background:new 0 0 360 180;" xml:space="preserve">
<style type="text/css">
	.st0{fill:#E60000;}
	.st1{fill-rule:evenodd;clip-rule:evenodd;fill:#FEDE7E;}
	.st2{opacity:0.5;fill:#4FA0CA;}
	.st3{fill-rule:evenodd;clip-rule:evenodd;fill:#FD9F46;}
	.st4{fill:#FD8030;}
	.st5{fill:#FDB364;}
	.st6{opacity:0.5;fill:#80C41C;}
	.st7{fill-rule:evenodd;clip-rule:evenodd;fill:#FDB364;}
	
		.st8{fill:none;stroke:#FF0000;stroke-width:1.2;stroke-linecap:round;stroke-linejoin:round;stroke-miterlimit:10;stroke-dasharray:4;}
	
		.st9{fill-rule:evenodd;clip-rule:evenodd;fill:none;stroke:#FF0000;stroke-width:1.2;stroke-linecap:round;stroke-linejoin:round;stroke-miterlimit:10;stroke-dasharray:4;}
	.st10{fill-rule:evenodd;clip-rule:evenodd;fill:none;stroke:#E60000;stroke-width:3;stroke-miterlimit:10;}
	.st11{opacity:0.5;fill-rule:evenodd;clip-rule:evenodd;fill:#FFFFFF;}
	.st12{fill:#FE1109;}
	.st13{opacity:0.2;fill:#E60000;}
	.st14{fill-rule:evenodd;clip-rule:evenodd;fill:#E60000;}
	.st15{opacity:0.5;fill-rule:evenodd;clip-rule:evenodd;fill:#4FA0CA;}
	.st16{fill-rule:evenodd;clip-rule:evenodd;fill:#FD8030;}
	.st17{opacity:0.5;fill-rule:evenodd;clip-rule:evenodd;fill:#80C41C;}
	.st18{opacity:0.34;fill-rule:evenodd;clip-rule:evenodd;fill:#FF0000;}
	
		.st19{fill-rule:evenodd;clip-rule:evenodd;fill:none;stroke:#00A0C6;stroke-width:1.2;stroke-linecap:round;stroke-linejoin:round;stroke-miterlimit:10;stroke-dasharray:4;}
	
		.st20{fill-rule:evenodd;clip-rule:evenodd;fill:none;stroke:#237D26;stroke-width:1.2;stroke-linecap:round;stroke-linejoin:round;stroke-miterlimit:10;stroke-dasharray:4;}
	
		.st21{fill:none;stroke:#237D26;stroke-width:1.2;stroke-linecap:round;stroke-linejoin:round;stroke-miterlimit:10;stroke-dasharray:4;}
	.st22{fill:#237D26;}
	.st23{fill:#00A0C6;}
	
		.st24{fill-rule:evenodd;clip-rule:evenodd;fill:none;stroke:#E60000;stroke-width:3;stroke-linecap:round;stroke-linejoin:round;stroke-miterlimit:10;}
	.st25{opacity:0.5;}
	.st26{fill:none;stroke:#F7B816;stroke-width:1.5;stroke-miterlimit:10;}
	.st27{fill:#F7B816;}
</style>
<path id="XMLID_270_" class="st0" d="M268.1,146c-1.3,3-3,5.7-4.4,8c-1.9,3-3.1,5-2.8,6.6c0,0.1,0.1,0.2,0.1,0.3
	c-3.1,3.6-5.1,6.8-6.5,9.2c-0.9,1.6-1.1,3-0.6,4.2c0.9,1.7,3.3,2.2,5.3,2.3l0.1,0l10.8,0c2.1-0.1,3.8-1.6,4.6-4.3
	c0.2-0.5,0.3-1.1,0.5-1.6c1.2,1.5,2.6,1.9,3.6,1.6c1.6-0.4,3.3-2.4,3-7.1c2.5-8,4.7-14,6.7-18.3C278.1,147.4,271.7,146.7,268.1,146z
	"/>
<path id="XMLID_271_" class="st0" d="M118.2,150.2l-0.2,0.7c-0.6,2-1.4,3.9-2.4,5.9l-0.5,1c-0.9,2-1.8,4.2-1.6,5.9
	c-0.5,0.8-1,1.7-1.6,2.5c-1.4,2.2-2.9,4.4-3.7,6.8c-0.2,0.7-0.4,1.7,0.2,2.5c0.7,0.9,1.9,1,2.9,1.1h13.1c1.6,0,2.5-0.6,3.1-2.1
	c0.2-0.6,0.4-1.3,0.6-2c0.9,1.2,1.9,1.3,2.6,1.2c1.8-0.3,3.2-2.5,3.4-5.6c0-0.5,0-1,0.1-1.4c0-0.8,0.1-1.6,0.1-2.3l0.1-1
	c0.6-3.7,1.7-7.4,2.7-11c0.8-2.7,1.6-5.5,2.2-8.4c-8.7,3.6-17,1.5-20.8,0.1C118.8,146.1,118.6,148.1,118.2,150.2z"/>
<path class="st13" d="M352.5,42.2c-7.8-6.2-16.2-6.6-23.8-1.3c-6.4-2.7-14.4-3.9-23.2-3.5c-14.4-18.4-34.9-21.3-67.3-20.2l-0.1,0
	c-44.6,6.2-78.4,9.1-100.2,8.7c-15.9-0.8-25.5,2-36.6,5.3c-4.9,1.4-9.9,2.9-15.9,4.3c-2-8.6-11.5-14.9-28.4-18.9
	C47.6,4.9,44.7,4.3,43,5.2c-0.7,0.4-2.4,1.4-0.2,8.9c-4.5-4.9-6.2-5.1-7.4-4.4c-0.8,0.4-3.1,1.8,2.1,14.3c2.1,5.2,2.8,9.9,3.5,15
	c0.4,2.9,0.8,5.9,1.5,8.9c-5,4.9-5.1,8.2-5.2,10.9c-0.1,2.1-0.2,3.5-2.5,5.4c-3.2,2.6-12.2,6-22.1,9.7c-0.9,0.2-1.8-0.1-2.8-0.5
	c-1.6-0.6-3.7-1.4-6,0.7l-0.4,0.4l0,0.5C3.7,87,4,94.4,4,94.5l0,0.7l0.6,0.3c2,1,4.5,1.8,5.7,2.1c1.3,4.8,4.8,6.5,12.3,6.2
	c14.1,11.6,39.5,15.9,49.7,15.6c11.5,2.6,19.7,5.1,24.5,7.3c0.7,3.1,0.7,5.9,0.1,9c-0.5,2.2-1.5,4.4-2.5,6.5c-1.3,2.7-2.4,5-2.1,7
	c-0.9,1.5-1.7,2.8-2.4,4c-2.5,4.1-3.7,6.1-2.9,7.7c0.6,1.1,2,1.2,3,1.2h13.4c2.3,0,2.9-2,3.4-4.2c0.8,1,1.7,1.3,2.6,1.3
	c1.5-0.1,3.2-1.5,3.4-5.2c0.1-0.7,0.1-1.3,0.1-1.8c0-0.9,0-1.7,0.2-2.8c0.7-4.6,1.8-8.3,2.9-11.8c0.2-0.6,0.4-1.2,0.5-1.8
	c2.2,5.3,2.8,9.6,1.8,14.2l-0.2,0.7c-0.6,2-1.4,3.9-2.4,5.9l-0.5,1c-0.9,2-1.8,4.2-1.6,5.9c-0.5,0.8-1,1.7-1.6,2.5
	c-1.4,2.2-2.9,4.4-3.7,6.8c-0.2,0.7-0.4,1.7,0.2,2.5c0.7,0.9,1.9,1,2.9,1.1h13.1c1.6,0,2.5-0.6,3.1-2.1c0.2-0.6,0.4-1.3,0.6-2
	c0.9,1.2,1.9,1.3,2.6,1.2c1.8-0.3,3.2-2.5,3.4-5.6c0-0.5,0-1,0.1-1.4c0-0.8,0.1-1.6,0.1-2.3l0.1-1c0.6-3.7,1.7-7.4,2.7-11
	c1.1-3.9,2.3-8,2.9-12.1c0.3-2.1,0.5-4.3,0.5-6.6c10,0.4,19.6,1.9,29.8,3.6c22.3,3.6,45.4,7.3,71.9-2.3c0,1.5-1.2,4-2.2,5.9
	c-1.1,2.2-2.2,4.3-1.8,5.7c-3.1,3.6-5.1,6.8-6.5,9.2c-1,1.7-1.1,3.2-0.5,4.3c1.5,2.5,6.5,2.4,12.3,2.3c1.3,0,2.5-0.1,3.8-0.1
	c2.1-0.1,3.8-1.6,4.6-4.3c0.2-0.5,0.3-1.1,0.5-1.6c1.2,1.5,2.6,1.9,3.6,1.6c1.6-0.4,3.3-2.4,3-7.1c3.3-10.5,6.1-17.6,8.5-21.8
	c5.9,9.6,0.1,18.8-3.7,24.9c-1.9,3-3.1,5-2.8,6.6c0,0.1,0.1,0.2,0.1,0.3c-3.1,3.6-5.1,6.8-6.5,9.2c-0.9,1.6-1.1,3-0.6,4.2
	c0.9,1.7,3.3,2.2,5.3,2.3l0.1,0l10.8,0c2.1-0.1,3.8-1.6,4.6-4.3c0.2-0.5,0.3-1.1,0.5-1.6c1.2,1.5,2.6,1.9,3.6,1.6
	c1.6-0.4,3.3-2.4,3-7.1c4-12.5,7.1-20.2,9.9-24c4.4-5.2,5.4-9.7,3.1-13.4c-0.9-2.2-0.2-4.9,2.3-8c15.7-19.8,20-44.1,12.6-70.5
	c3-1.5,8.7-1.2,12.4,0.2c-1,2.5-2,5.6-2.1,7.6c-0.2,7.2,3.5,10.1,5.8,11.2c4.3,2,10.2,1.1,14.1-2.3c3.3-2.8,4.5-6.8,3.3-10.8
	c-1-3.3-4.3-7.4-7.4-10c4.3-1.7,7.8-0.9,12.3,2.6c3.3,2.6,6.1,3.7,7.8,3c0.7-0.3,1.2-0.9,1.4-1.7C357.6,47.3,355.9,44.8,352.5,42.2z
	 M339.1,56.5c0.7,2.2-0.2,4.5-2.3,6.3c-1.6,1.3-3.9,2.3-6.1,2.3c-1,0-2-0.2-2.9-0.6c-1.4-0.7-3.7-2.5-3.6-7.3
	c0.1-2.8,1.7-6.2,2.6-7.9l0.4-0.8l0.9,0.2C332.4,49.5,337.8,52.2,339.1,56.5z"/>
</svg>
