<?xml version="1.0" encoding="utf-8"?>
<!-- Generator: Adobe Illustrator 17.0.0, SVG Export Plug-In . SVG Version: 6.00 Build 0)  -->
<!DOCTYPE svg PUBLIC "-//W3C//DTD SVG 1.1//EN" "http://www.w3.org/Graphics/SVG/1.1/DTD/svg11.dtd">
<svg version="1.1" id="Capa_1" xmlns="http://www.w3.org/2000/svg" xmlns:xlink="http://www.w3.org/1999/xlink" x="0px" y="0px"
	 width="23px" height="29px" viewBox="0 0 23 29" style="enable-background:new 0 0 23 29;" xml:space="preserve">
<style type="text/css">
	.st0{fill:#F7F6F6;}
	.st1{fill:#999999;}
	.st2{fill:none;stroke:#D9160B;stroke-width:0.5;stroke-linecap:round;stroke-linejoin:round;stroke-miterlimit:10;}
	
		.st3{fill:none;stroke:#D9160B;stroke-width:0.5;stroke-linecap:round;stroke-linejoin:round;stroke-miterlimit:10;stroke-dasharray:0,0.967;}
	
		.st4{fill:none;stroke:#D9160B;stroke-width:0.5;stroke-linecap:round;stroke-linejoin:round;stroke-miterlimit:10;stroke-dasharray:0,1.048;}
</style>
<path class="st0" d="M21.8,24.1c-3.6,2.1-7.1,3.9-10.3,4.9c-3.2-1-6.6-2.9-10.3-4.9c-1.4-6.4-1.4-12.8,0-19.1
	C4.9,2.9,8.3,1.1,11.5,0c3.2,1,6.6,2.9,10.3,4.9C23.2,11.3,23.2,17.7,21.8,24.1"/>
<path class="st2" d="M9.7,14.1c0.4,0.1,0.8,0.6,0.8,1c0,0.5-0.1,1.2-0.5,2.2c-0.4,1-0.5,1.5-0.6,2.5c0,0,0,0.1-0.1,0.1
	C9,20,8.6,19.3,8.5,19.1c-0.3-0.5,0.2-1.7,0.5-2.5c0.3-0.8,0.5-1.6,0.6-2.4c0,0,0-0.1,0.1-0.1C9.6,14.1,9.7,14.1,9.7,14.1z
	 M8.5,11.9c0,0-0.1,0-0.1,0S8.3,11.9,8.3,12c-0.2,0.9-0.6,1.8-1,2.7c-0.4,0.8-0.9,1.4-0.6,2c0.1,0.2,0.4,1.1,0.7,1
	c0,0,0.1-0.1,0.1-0.1c0.3-1.2,0.1-0.9,0.7-2c0.6-1.1,0.8-1.8,0.9-2.4C9.2,12.7,8.9,12.1,8.5,11.9z M18.9,15.6c0,0.4-0.2,0.9-0.6,1.1
	c-0.5,0.3-0.7,0.4-1.9,0.5c-1.2,0.2-1.3,0.1-2.3,0.6c0,0-0.1,0-0.1,0c-0.3-0.2,0.2-0.8,0.3-1c0.3-0.5,1.4-0.6,2.3-0.8
	c0.9-0.1,1.4-0.2,2.1-0.6c0,0,0.1,0,0.1,0C18.9,15.5,18.9,15.6,18.9,15.6z M18.7,12.4c0.1,0.3,0,1-0.3,1.2c-0.4,0.4-1,0.8-2.1,1.2
	c-1.1,0.4-1.5,0.7-2.4,1.4c0,0-0.1,0-0.1,0c-0.3-0.1,0-0.9,0-1.1c0.2-0.6,1.5-1.1,2.3-1.4c0.8-0.3,1.7-0.8,2.3-1.3
	C18.5,12.3,18.5,12.3,18.7,12.4C18.6,12.3,18.6,12.4,18.7,12.4z M10.5,11.8c-0.1,0-0.1,0-0.1,0.1c0,0,0,0.1,0,0.1
	c0.4,0.8,0.7,1.8,0.9,2.7c0.2,0.9,0.3,2,0.9,2.3c0.2,0.1,1,0.6,1.2,0.3c0,0,0-0.1,0-0.1c-0.5-1.1-0.6-1.1-0.8-2.4
	c-0.2-1.2-0.5-1.9-0.8-2.5C11.5,12,10.9,11.7,10.5,11.8z M10.6,18.2c0,0.4,0.4,1,0.7,1.1c0.6,0.2,1.3,0.4,2.6,0.4
	c1.3,0,1.8,0.1,2.9,0.5c0,0,0.1,0,0.1,0c0.3-0.3-0.3-0.9-0.5-1.1c-0.4-0.5-1.9-0.5-2.9-0.6c-0.9,0-1.9-0.2-2.8-0.5c0,0-0.1,0-0.1,0
	C10.7,18.1,10.6,18.2,10.6,18.2z M15.8,21c0-0.1,0-0.1,0-0.1c0,0-0.1-0.1-0.1-0.1c-0.9,0.1-1.9,0-2.9-0.2c-0.9-0.2-2.4-0.5-2.9-0.1
	c-0.2,0.1-0.9,0.7-0.7,1c0,0,0.1,0.1,0.1,0.1c1.2-0.1,1.7,0,2.9,0.2c1.2,0.3,2,0.3,2.6,0.2C15.3,21.8,15.8,21.3,15.8,21z M14.7,10.3
	c0-0.1,0-0.1,0-0.1c0,0-0.1-0.1-0.1-0.1c-0.9,0.1-1.3,0-2.2-0.1c-0.9-0.2-2.1-0.4-2.6,0c-0.2,0.1-0.9,0.7-0.7,1c0,0,0.1,0.1,0.1,0.1
	c1.2-0.1,1.3-0.2,2.6,0.1c1.2,0.2,1.3,0.2,1.9,0.1C14.1,11.2,14.6,10.7,14.7,10.3z M8.1,10.7c-0.4-0.1-1,0-1.3,0.3
	c-0.4,0.5-0.8,1.1-1.2,2.3s-0.7,1.6-1.4,2.6c0,0,0,0.1,0,0.1c0.1,0.4,1,0,1.2-0.1c0.6-0.2,1.1-1.6,1.5-2.5c0.3-0.9,0.8-1.8,1.4-2.5
	c0,0,0-0.1,0-0.1C8.2,10.7,8.2,10.7,8.1,10.7z M17.9,9.6c0,0-0.1-0.1-0.1-0.1c-0.1,0-0.1,0-0.1,0c-0.6,0.7-1.4,1.3-2.3,1.8
	c-0.8,0.5-2.2,1.2-2.2,1.9c0,0.2-0.3,1.1,0.1,1.2c0.1,0,0.1,0,0.1,0c0.8-0.9,1.2-1.2,2.3-1.8c1.1-0.6,1.6-1.1,2.1-1.6
	C18,10.6,18,9.9,17.9,9.6z M8.3,7.2c0.2,0.3,0.3,1,0.1,1.3C8,9,7.5,9.6,6.5,10.4c-1,0.8-1.3,1.2-2,2.1c0,0-0.1,0.1-0.1,0.1
	c-0.4,0-0.3-0.9-0.3-1.2c0-0.6,1.2-1.6,2-2.2c0.7-0.6,1.4-1.3,2-2.1c0,0,0.1-0.1,0.1-0.1C8.2,7.1,8.2,7.1,8.3,7.2z M16,8.5
	c-0.1,0.4-0.6,0.9-1,0.9c-0.6,0.1-1.4,0.1-2.6-0.2c-1.2-0.3-1.7-0.3-2.9-0.2c-0.1,0-0.1,0-0.1-0.1c-0.2-0.3,0.5-0.8,0.7-1
	C10.5,7.5,12,7.8,13,8c0.9,0.2,1.9,0.3,2.9,0.2c0.1,0,0.1,0,0.1,0.1C16,8.4,16,8.4,16,8.5z M8,21.4c0.2-0.3,0.3-1,0-1.3
	c-0.4-0.5-0.3-0.5-1.2-1.4C6,17.8,6,17.8,5.4,16.7c0,0-0.1-0.1-0.1-0.1c-0.4,0-0.4,0.9-0.4,1.1c-0.1,0.6,0.7,1.3,1.4,2
	c0.7,0.7,1,0.9,1.5,1.6c0,0,0.1,0.1,0.1,0C7.9,21.4,8,21.4,8,21.4z"/>
</svg>
