<?xml version="1.0" encoding="utf-8"?>
<!-- Generator: Adobe Illustrator 17.0.0, SVG Export Plug-In . SVG Version: 6.00 Build 0)  -->
<!DOCTYPE svg PUBLIC "-//W3C//DTD SVG 1.1//EN" "http://www.w3.org/Graphics/SVG/1.1/DTD/svg11.dtd">
<svg version="1.1" id="Capa_1" xmlns="http://www.w3.org/2000/svg" xmlns:xlink="http://www.w3.org/1999/xlink" x="0px" y="0px"
	 width="23px" height="29px" viewBox="0 0 23 29" style="enable-background:new 0 0 23 29;" xml:space="preserve">
<style type="text/css">
	.st0{fill:#F7F6F6;}
	.st1{fill:#999999;}
	.st2{fill:none;stroke:#D9160B;stroke-width:0.5;stroke-linecap:round;stroke-linejoin:round;stroke-miterlimit:10;}
	
		.st3{fill:none;stroke:#D9160B;stroke-width:0.5;stroke-linecap:round;stroke-linejoin:round;stroke-miterlimit:10;stroke-dasharray:0,0.967;}
	
		.st4{fill:none;stroke:#D9160B;stroke-width:0.5;stroke-linecap:round;stroke-linejoin:round;stroke-miterlimit:10;stroke-dasharray:0,1.048;}
</style>
<path class="st0" d="M21.8,24.1c-3.6,2.1-7.1,3.9-10.3,4.9c-3.2-1-6.6-2.9-10.3-4.9c-1.4-6.4-1.4-12.8,0-19.1
	C4.9,2.9,8.3,1.1,11.5,0c3.2,1,6.6,2.9,10.3,4.9C23.2,11.3,23.2,17.7,21.8,24.1"/>
<path class="st2" d="M7.9,18.1c-0.5-0.5-1-0.7-1.2-0.5c-0.2,0.2,0,0.8,0.5,1.2c0.5,0.5,1,0.7,1.2,0.5S8.4,18.6,7.9,18.1z M15.4,8.4
	C16,9,16,10,15.4,10.6c0.6-0.6,1.5-0.6,2.1,0c0.6,0.6,0.6,1.5,0,2.1c-0.6,0.6-1.5,0.6-2.1,0c-0.1-0.1-0.2-0.2-0.2-0.3l-0.3,0.3
	c0,0,0,0,0,0.1c-1.2,1.4-1.4,5.4-3,7c-1.9,1.9-3.8,1.3-5.3-0.2c-1.5-1.5-2.1-3.4-0.2-5.3c1.5-1.5,5.4-1.9,6.8-2.9l0.5-0.5
	c-0.1-0.1-0.2-0.1-0.3-0.2c-0.6-0.6-0.6-1.5,0-2.1C13.9,7.9,14.8,7.9,15.4,8.4z"/>
</svg>
