<?xml version="1.0" encoding="utf-8"?>
<!-- Generator: Adobe Illustrator 17.0.0, SVG Export Plug-In . SVG Version: 6.00 Build 0)  -->
<!DOCTYPE svg PUBLIC "-//W3C//DTD SVG 1.1//EN" "http://www.w3.org/Graphics/SVG/1.1/DTD/svg11.dtd">
<svg version="1.1" id="Capa_1" xmlns="http://www.w3.org/2000/svg" xmlns:xlink="http://www.w3.org/1999/xlink" x="0px" y="0px"
	 width="23px" height="29px" viewBox="0 0 23 29" style="enable-background:new 0 0 23 29;" xml:space="preserve">
<style type="text/css">
	.st0{fill:#F7F6F6;}
	.st1{fill:#999999;}
	.st2{fill:none;stroke:#D9160B;stroke-width:0.5;stroke-linecap:round;stroke-linejoin:round;stroke-miterlimit:10;}
	
		.st3{fill:none;stroke:#D9160B;stroke-width:0.5;stroke-linecap:round;stroke-linejoin:round;stroke-miterlimit:10;stroke-dasharray:0,0.967;}
	
		.st4{fill:none;stroke:#D9160B;stroke-width:0.5;stroke-linecap:round;stroke-linejoin:round;stroke-miterlimit:10;stroke-dasharray:0,1.048;}
</style>
<path class="st0" d="M21.8,24.1c-3.6,2.1-7.1,3.9-10.3,4.9c-3.2-1.1-6.6-2.9-10.3-4.9c-1.4-6.4-1.4-12.8,0-19.1
	C4.9,2.9,8.3,1.1,11.5,0c3.2,1.1,6.6,2.9,10.3,4.9C23.2,11.3,23.2,17.7,21.8,24.1"/>
<g>
	<path class="st2" d="M7.8,18.2c-0.2-0.2-0.4-0.5-0.6-0.7L6.7,18c-0.1,0.1-0.1,0.3,0,0.5l0.8,0.8c0.1,0.1,0.3,0.1,0.5,0l0.6-0.6
		C8.3,18.6,8.1,18.4,7.8,18.2z M15.2,10.8c0.2,0.2,0.4,0.5,0.6,0.7l0.5-0.5c0.1-0.1,0.1-0.3,0-0.5l-0.8-0.8c-0.1-0.1-0.3-0.1-0.5,0
		l-0.5,0.5C14.7,10.4,14.9,10.6,15.2,10.8z M17.2,9.9l-1.1-1.1c-0.5-0.5-1.3-0.5-1.8,0l-0.9,0.9c-1.9-0.8-4.1-0.4-5.6,1.1
		c-1.5,1.5-1.9,3.8-1.1,5.6l-0.9,0.9c-0.5,0.5-0.5,1.3,0,1.8l1.1,1.1c0.5,0.5,1.3,0.5,1.8,0l0.9-0.9c1.9,0.8,4.1,0.4,5.6-1.1
		c1.5-1.5,1.9-3.8,1.1-5.6l0.9-0.9C17.7,11.2,17.7,10.4,17.2,9.9z"/>
	<path class="st3" d="M14.8,12.6c0.8,1.3,0.7,3-0.3,4.2"/>
	<path class="st3" d="M13.4,17.8c-1.3,0.8-3,0.7-4.2-0.3"/>
	<path class="st3" d="M8.2,16.4c-0.8-1.3-0.7-3,0.3-4.2"/>
	<path class="st3" d="M9.6,11.2c1.3-0.8,3-0.7,4.2,0.3"/>
	<path class="st2" d="M14.2,11.8L14.2,11.8 M8.8,11.8L8.8,11.8 M8.8,17.2L8.8,17.2 M14.2,17.2L14.2,17.2"/>
</g>
</svg>
