<?xml version="1.0" encoding="utf-8"?>
<!-- Generator: Adobe Illustrator 17.0.0, SVG Export Plug-In . SVG Version: 6.00 Build 0)  -->
<!DOCTYPE svg PUBLIC "-//W3C//DTD SVG 1.1//EN" "http://www.w3.org/Graphics/SVG/1.1/DTD/svg11.dtd">
<svg version="1.1" id="Capa_1" xmlns="http://www.w3.org/2000/svg" xmlns:xlink="http://www.w3.org/1999/xlink" x="0px" y="0px"
	 width="23px" height="29px" viewBox="0 0 23 29" style="enable-background:new 0 0 23 29;" xml:space="preserve">
<style type="text/css">
	.st0{fill:#F7F6F6;}
	.st1{fill:#999999;}
	.st2{fill:none;stroke:#D9160B;stroke-width:0.5;stroke-linecap:round;stroke-linejoin:round;stroke-miterlimit:10;}
	
		.st3{fill:none;stroke:#D9160B;stroke-width:0.5;stroke-linecap:round;stroke-linejoin:round;stroke-miterlimit:10;stroke-dasharray:0,0.967;}
	
		.st4{fill:none;stroke:#D9160B;stroke-width:0.5;stroke-linecap:round;stroke-linejoin:round;stroke-miterlimit:10;stroke-dasharray:0,1.048;}
</style>
<path class="st0" d="M21.8,24.1c-3.6,2.1-7.1,3.9-10.3,4.9c-3.2-1-6.6-2.9-10.3-4.9c-1.4-6.4-1.4-12.8,0-19.1
	C4.9,2.9,8.3,1.1,11.5,0c3.2,1,6.6,2.9,10.3,4.9C23.2,11.3,23.2,17.7,21.8,24.1"/>
<g>
	<path class="st4" d="M16.9,14c-0.4,1.5-1.7,2.7-3.3,2.9"/>
	<path class="st4" d="M12,16.8c-1.5-0.4-2.7-1.7-2.9-3.3"/>
	<path class="st4" d="M9.2,11.9c0.4-1.5,1.7-2.7,3.3-2.9"/>
	<path class="st4" d="M14.1,9.1c1.5,0.4,2.7,1.7,2.9,3.3"/>
	<path class="st2" d="M17,13L17,13 M13,9L13,9 M9,13L9,13 M13,17L13,17"/>
	<path class="st2" d="M5.6,20.4l1.5-1.5 M13,7.4c-3.1,0-5.6,2.5-5.6,5.6c0,1.1,0.3,2.1,0.9,3l-3.4,3.4c-0.5,0.5-0.5,1.2,0,1.7
		c0.5,0.5,1.2,0.5,1.7,0l3.4-3.4c0.9,0.6,1.9,0.9,3,0.9c3.1,0,5.6-2.5,5.6-5.6C18.6,9.9,16.1,7.4,13,7.4z"/>
</g>
</svg>
