<?xml version="1.0" encoding="utf-8"?>
<!-- Generator: Adobe Illustrator 17.0.0, SVG Export Plug-In . SVG Version: 6.00 Build 0)  -->
<!DOCTYPE svg PUBLIC "-//W3C//DTD SVG 1.1//EN" "http://www.w3.org/Graphics/SVG/1.1/DTD/svg11.dtd">
<svg version="1.1" id="Capa_1" xmlns="http://www.w3.org/2000/svg" xmlns:xlink="http://www.w3.org/1999/xlink" x="0px" y="0px"
	 width="23px" height="29px" viewBox="0 0 23 29" style="enable-background:new 0 0 23 29;" xml:space="preserve">
<style type="text/css">
	.st0{fill:#F7F6F6;}
	.st1{fill:#999999;}
	.st2{fill:none;stroke:#D9160B;stroke-width:0.5;stroke-linecap:round;stroke-linejoin:round;stroke-miterlimit:10;}
	
		.st3{fill:none;stroke:#D9160B;stroke-width:0.5;stroke-linecap:round;stroke-linejoin:round;stroke-miterlimit:10;stroke-dasharray:0,0.967;}
	
		.st4{fill:none;stroke:#D9160B;stroke-width:0.5;stroke-linecap:round;stroke-linejoin:round;stroke-miterlimit:10;stroke-dasharray:0,1.048;}
</style>
<path class="st0" d="M21.8,24.1c-3.6,2.1-7.1,3.9-10.3,4.9c-3.2-1.1-6.6-2.9-10.3-4.9c-1.4-6.4-1.4-12.8,0-19.1
	C4.9,2.9,8.3,1.1,11.5,0c3.2,1.1,6.6,2.9,10.3,4.9C23.2,11.3,23.2,17.7,21.8,24.1"/>
<path class="st2" d="M14.8,12c0.1-0.5,1.9-0.5,2.5-1.1c-0.1,0.5,0.9,2.2,0.3,2.7 M15.6,12.3c-0.2-0.1-0.4-0.2-0.8-0.3
	c-0.7-0.1-2.3,0.3-2.5,0.3c-0.5,1.3-1,2.9-1.2,3.2c-0.2,0.3-1.6,1.8-2.3,2.2c-0.7,0.4-1.1,0.9-4.1,0.6c-0.2,0,0,0.5,0,0.6
	c0.3,0.8,4.9,1.2,6.8,1c0.3,0,3.7-1.5,4.1-1.9c0.8-0.7,2.3-2,2.7-3.3c-0.2-0.5-0.8-1.5-1.8-1.9 M17.3,10.9c0.2-0.4,0.7-1.2,0.2-1.9
	 M16.6,15.8c0.2-0.3,0.5-0.6,0.6-0.9 M11.9,16.3c0.3-0.3,0.5-0.6,0.8-0.9 M13.2,14.6c0.7-1.3,1-2.5,1.1-2.6"/>
</svg>
