<?xml version="1.0" encoding="utf-8"?>
<!-- Generator: Adobe Illustrator 17.0.0, SVG Export Plug-In . SVG Version: 6.00 Build 0)  -->
<!DOCTYPE svg PUBLIC "-//W3C//DTD SVG 1.1//EN" "http://www.w3.org/Graphics/SVG/1.1/DTD/svg11.dtd">
<svg version="1.1" id="Capa_1" xmlns="http://www.w3.org/2000/svg" xmlns:xlink="http://www.w3.org/1999/xlink" x="0px" y="0px"
	 width="23px" height="29px" viewBox="0 0 23 29" style="enable-background:new 0 0 23 29;" xml:space="preserve">
<style type="text/css">
	.st0{fill:#F7F6F6;}
	.st1{fill:#999999;}
	.st2{fill:none;stroke:#D9160B;stroke-width:0.5;stroke-linecap:round;stroke-linejoin:round;stroke-miterlimit:10;}
	
		.st3{fill:none;stroke:#D9160B;stroke-width:0.5;stroke-linecap:round;stroke-linejoin:round;stroke-miterlimit:10;stroke-dasharray:0,0.967;}
	
		.st4{fill:none;stroke:#D9160B;stroke-width:0.5;stroke-linecap:round;stroke-linejoin:round;stroke-miterlimit:10;stroke-dasharray:0,1.048;}
</style>
<path class="st0" d="M21.8,24.1c-3.6,2.1-7.1,3.9-10.3,4.9c-3.2-1.1-6.6-2.9-10.3-4.9c-1.4-6.4-1.4-12.8,0-19.1
	C4.9,2.9,8.3,1.1,11.5,0c3.2,1.1,6.6,2.9,10.3,4.9C23.2,11.3,23.2,17.7,21.8,24.1"/>
<path class="st2" d="M8.8,17.3c-0.6-0.6-1.2-0.8-1.6-0.5c-0.3,0.3-0.1,1,0.5,1.6s1.2,0.8,1.6,0.5C9.6,18.5,9.3,17.8,8.8,17.3z
	 M11.6,20.8c0.8-0.8,0-2.8-1.8-4.6c-1.7-1.8-3.8-2.6-4.5-1.8 M15.5,8.4c0.6,0.6,0.6,1.5,0,2c0.6-0.6,1.5-0.6,2,0s0.6,1.5,0,2
	c-0.6,0.6-1.5,0.6-2,0c-0.1-0.1-0.2-0.2-0.2-0.3l-0.9,0.9c1,2,0.1,5.2-1.5,6.8c-1.9,1.9-4.2,1.1-6-0.7c-1.9-1.9-2.6-4.2-0.7-6
	c1.6-1.6,4.7-2.5,6.7-1.5l0.9-0.9c-0.1-0.1-0.2-0.1-0.3-0.2c-0.6-0.6-0.6-1.5,0-2C14,7.8,14.9,7.8,15.5,8.4z"/>
</svg>
