<?xml version="1.0" encoding="utf-8"?>
<!-- Generator: Adobe Illustrator 17.0.0, SVG Export Plug-In . SVG Version: 6.00 Build 0)  -->
<!DOCTYPE svg PUBLIC "-//W3C//DTD SVG 1.1//EN" "http://www.w3.org/Graphics/SVG/1.1/DTD/svg11.dtd">
<svg version="1.1" id="Capa_1" xmlns="http://www.w3.org/2000/svg" xmlns:xlink="http://www.w3.org/1999/xlink" x="0px" y="0px"
	 width="23px" height="29px" viewBox="0 0 23 29" style="enable-background:new 0 0 23 29;" xml:space="preserve">
<style type="text/css">
	.st0{fill:#F7F6F6;}
	.st1{fill:#999999;}
	.st2{fill:none;stroke:#D9160B;stroke-width:0.5;stroke-linecap:round;stroke-linejoin:round;stroke-miterlimit:10;}
	
		.st3{fill:none;stroke:#D9160B;stroke-width:0.5;stroke-linecap:round;stroke-linejoin:round;stroke-miterlimit:10;stroke-dasharray:0,0.967;}
	
		.st4{fill:none;stroke:#D9160B;stroke-width:0.5;stroke-linecap:round;stroke-linejoin:round;stroke-miterlimit:10;stroke-dasharray:0,1.048;}
</style>
<path class="st0" d="M21.8,24.1c-3.6,2.1-7.1,3.9-10.3,4.9c-3.2-1.1-6.6-2.9-10.3-4.9c-1.4-6.4-1.4-12.8,0-19.1
	C4.9,2.9,8.3,1.1,11.5,0c3.2,1.1,6.6,2.9,10.3,4.9C23.2,11.3,23.2,17.7,21.8,24.1"/>
<path class="st2" d="M7.2,18.7V19 M7.2,11.3V12 M7.2,12.8v5 M11,10V9.7c0-0.2,0.2-0.4,0.5-0.4S12,9.5,12,9.7V10 M9.7,10V9.8
	c0-1,0.8-1.7,1.8-1.7c1,0,1.8,0.8,1.8,1.7V10 M5.5,13.6L5.5,13.6c0-0.2,0.1-0.3,0.3-0.3h0.4v0.9l-0.6-0.3
	C5.6,13.8,5.5,13.7,5.5,13.6z M17.5,13.6L17.5,13.6c0-0.2-0.1-0.3-0.3-0.3h-0.4v0.9l0.6-0.3C17.4,13.8,17.5,13.7,17.5,13.6z M6.2,12
	v-0.8c0-0.6,0.5-1.1,1.2-1.1h2.3 M13.3,10h2.3c0.6,0,1.2,0.5,1.2,1.1V12 M17.8,12c0.5,0,1,0.4,1,1v0.9c0,0.4-0.2,0.7-0.5,0.9
	l-1.4,0.7v3.9c0,0.9-0.7,1.6-1.7,1.6H7.9c-0.9,0-1.7-0.7-1.7-1.6v-3.9l-1.5-0.7c-0.3-0.2-0.5-0.5-0.5-0.9V13c0-0.5,0.4-1,1-1H17.8z"
	/>
</svg>
