<?xml version="1.0" encoding="utf-8"?>
<!-- Generator: Adobe Illustrator 17.0.0, SVG Export Plug-In . SVG Version: 6.00 Build 0)  -->
<!DOCTYPE svg PUBLIC "-//W3C//DTD SVG 1.1//EN" "http://www.w3.org/Graphics/SVG/1.1/DTD/svg11.dtd">
<svg version="1.1" id="Capa_1" xmlns="http://www.w3.org/2000/svg" xmlns:xlink="http://www.w3.org/1999/xlink" x="0px" y="0px"
	 width="23px" height="29px" viewBox="0 0 23 29" style="enable-background:new 0 0 23 29;" xml:space="preserve">
<style type="text/css">
	.st0{fill:#F7F6F6;}
	.st1{fill:#999999;}
	.st2{fill:none;stroke:#D9160B;stroke-width:0.5;stroke-linecap:round;stroke-linejoin:round;stroke-miterlimit:10;}
	
		.st3{fill:none;stroke:#D9160B;stroke-width:0.5;stroke-linecap:round;stroke-linejoin:round;stroke-miterlimit:10;stroke-dasharray:0,0.967;}
	
		.st4{fill:none;stroke:#D9160B;stroke-width:0.5;stroke-linecap:round;stroke-linejoin:round;stroke-miterlimit:10;stroke-dasharray:0,1.048;}
</style>
<path class="st0" d="M21.8,24.1c-3.6,2.1-7.1,3.9-10.3,4.9c-3.2-1.1-6.6-2.9-10.3-4.9c-1.4-6.4-1.4-12.8,0-19.1
	C4.9,2.9,8.3,1.1,11.5,0c3.2,1.1,6.6,2.9,10.3,4.9C23.2,11.3,23.2,17.7,21.8,24.1"/>
<path class="st2" d="M6.6,16.9v0.3 M6.6,14v0.8 M6.6,15.6v0.5 M10.9,12.6v-0.3c0-0.3,0.3-0.5,0.6-0.5c0.3,0,0.6,0.2,0.6,0.5v0.3
	 M9.5,12.6v-0.3c0-1,0.9-1.9,2-1.9c1.1,0,2,0.8,2,1.9v0.3 M3.8,14.8h15.5c0.3,0,0.6,0.2,0.6,0.5c0,0.3,0,0.5-0.4,0.5h-1.9v0.9
	c0,1-0.9,1.8-1.9,1.8H7.4c-1,0-1.9-0.8-1.9-1.8v-0.9H3.8c-0.3,0-0.6-0.2-0.6-0.5C3.2,15,3.4,14.8,3.8,14.8z M5.5,14.8v-0.9
	c0-0.7,0.6-1.2,1.3-1.2h2.7 M13.5,12.6h2.7c0.7,0,1.3,0.6,1.3,1.2v0.9"/>
</svg>
