<?xml version="1.0" encoding="utf-8"?>
<!-- Generator: Adobe Illustrator 17.0.0, SVG Export Plug-In . SVG Version: 6.00 Build 0)  -->
<!DOCTYPE svg PUBLIC "-//W3C//DTD SVG 1.1//EN" "http://www.w3.org/Graphics/SVG/1.1/DTD/svg11.dtd">
<svg version="1.1" id="Capa_1" xmlns="http://www.w3.org/2000/svg" xmlns:xlink="http://www.w3.org/1999/xlink" x="0px" y="0px"
	 width="23px" height="29px" viewBox="0 0 23 29" style="enable-background:new 0 0 23 29;" xml:space="preserve">
<style type="text/css">
	.st0{fill:#F7F6F6;}
	.st1{fill:#999999;}
	.st2{fill:none;stroke:#D9160B;stroke-width:0.5;stroke-linecap:round;stroke-linejoin:round;stroke-miterlimit:10;}
	
		.st3{fill:none;stroke:#D9160B;stroke-width:0.5;stroke-linecap:round;stroke-linejoin:round;stroke-miterlimit:10;stroke-dasharray:0,0.967;}
	
		.st4{fill:none;stroke:#D9160B;stroke-width:0.5;stroke-linecap:round;stroke-linejoin:round;stroke-miterlimit:10;stroke-dasharray:0,1.048;}
</style>
<path class="st0" d="M21.8,24.1c-3.6,2.1-7.1,3.9-10.3,4.9c-3.2-1-6.6-2.9-10.3-4.9c-1.4-6.4-1.4-12.8,0-19.1
	C4.9,2.9,8.3,1.1,11.5,0c3.2,1,6.6,2.9,10.3,4.9C23.2,11.3,23.2,17.7,21.8,24.1"/>
<path class="st2" d="M18.3,15.7h-0.2c-0.1,0-0.3,0.1-0.4,0.2l-0.9,0.9c-0.1,0.1-0.3,0.1-0.4,0l-0.9-0.9c-0.1-0.1-0.2-0.2-0.4-0.2
	h-0.5c-0.1,0-0.3,0.1-0.4,0.2l-0.9,0.9c-0.1,0.1-0.3,0.1-0.4,0l-0.9-0.9c-0.1-0.1-0.2-0.2-0.4-0.2h-0.5c-0.1,0-0.3,0.1-0.4,0.2
	L10,16.7c-0.1,0.1-0.3,0.1-0.4,0l-0.9-0.9c-0.1-0.1-0.2-0.2-0.4-0.2H7.8c-0.1,0-0.3,0.1-0.4,0.2l-0.9,0.9c-0.1,0.1-0.3,0.1-0.4,0
	l-0.9-0.9c-0.1-0.1-0.2-0.2-0.4-0.2H4.7c-0.5,0-0.9,0.4-0.9,0.8v0.4c0,0.5,0.4,0.8,0.9,0.8h0.5H18h0.3c0.5,0,0.9-0.4,0.9-0.8v-0.4
	C19.2,16.1,18.8,15.7,18.3,15.7z M18.3,18.1v0.6c0,0.9-0.8,1.7-1.7,1.7H6.4c-0.9,0-1.7-0.8-1.7-1.7v-0.6c0-0.2,0.1-0.3,0.3-0.3h13
	C18.2,17.8,18.3,17.9,18.3,18.1z M11.5,8.6C8,8.6,5,10.2,4.7,12.2c0,0.1,0,0.2,0.1,0.3c0.1,0.1,0.2,0.1,0.3,0.1H18
	c0.1,0,0.2,0,0.3-0.1c0.1-0.1,0.1-0.2,0.1-0.3C18,10.2,15,8.6,11.5,8.6z M3.8,13.9c0-0.2,0.1-0.3,0.3-0.4c0.4-0.1,0.8-0.3,1.2-0.3
	c0.5,0,1,0.3,1.5,0.3c0.5,0,1-0.3,1.5-0.3c0.5,0,1,0.3,1.5,0.3c0.5,0,1-0.3,1.5-0.3c0.5,0,1,0.3,1.5,0.3c0.5,0,1-0.3,1.5-0.3
	c0.5,0,1.1,0.3,1.5,0.3c0.5,0,1-0.3,1.5-0.3c0.4,0,0.8,0.2,1.2,0.3c0.2,0,0.3,0.2,0.3,0.4v0.5c0,0.3-0.2,0.4-0.5,0.4
	c-0.3-0.1-0.7-0.2-1-0.2c-0.5,0-1,0.3-1.5,0.3c-0.4,0-1-0.3-1.5-0.3c-0.5,0-1,0.3-1.5,0.3c-0.5,0-1-0.3-1.5-0.3
	c-0.5,0-1,0.3-1.5,0.3c-0.5,0-1-0.3-1.5-0.3c-0.5,0-1,0.3-1.5,0.3c-0.5,0-1-0.3-1.5-0.3c-0.3,0-0.7,0.1-1,0.2
	c-0.2,0.1-0.5-0.1-0.5-0.4V13.9z"/>
</svg>
