<?xml version="1.0" encoding="utf-8"?>
<!-- Generator: Adobe Illustrator 17.0.0, SVG Export Plug-In . SVG Version: 6.00 Build 0)  -->
<!DOCTYPE svg PUBLIC "-//W3C//DTD SVG 1.1//EN" "http://www.w3.org/Graphics/SVG/1.1/DTD/svg11.dtd">
<svg version="1.1" id="after" xmlns="http://www.w3.org/2000/svg" xmlns:xlink="http://www.w3.org/1999/xlink" x="0px" y="0px"
	 width="296px" height="180px" viewBox="0 0 296 180" style="enable-background:new 0 0 296 180;" xml:space="preserve">
<style type="text/css">
	.st0{fill:#E60000;}
	.st1{fill-rule:evenodd;clip-rule:evenodd;fill:#FEDE7E;}
	.st2{opacity:0.5;fill:#4FA0CA;}
	.st3{fill-rule:evenodd;clip-rule:evenodd;fill:#FD9F46;}
	.st4{fill:#FD8030;}
	.st5{fill:#FDB364;}
	.st6{opacity:0.5;fill:#80C41C;}
	.st7{fill-rule:evenodd;clip-rule:evenodd;fill:#FDB364;}
	
		.st8{fill:none;stroke:#FF0000;stroke-width:1.2;stroke-linecap:round;stroke-linejoin:round;stroke-miterlimit:10;stroke-dasharray:4;}
	
		.st9{fill-rule:evenodd;clip-rule:evenodd;fill:none;stroke:#FF0000;stroke-width:1.2;stroke-linecap:round;stroke-linejoin:round;stroke-miterlimit:10;stroke-dasharray:4;}
	.st10{fill-rule:evenodd;clip-rule:evenodd;fill:none;stroke:#E60000;stroke-width:3;stroke-miterlimit:10;}
	.st11{opacity:0.5;fill-rule:evenodd;clip-rule:evenodd;fill:#FFFFFF;}
	.st12{fill:#FE1109;}
	.st13{opacity:0.2;fill:#E60000;}
	.st14{fill-rule:evenodd;clip-rule:evenodd;fill:#E60000;}
	.st15{opacity:0.5;fill-rule:evenodd;clip-rule:evenodd;fill:#4FA0CA;}
	.st16{fill-rule:evenodd;clip-rule:evenodd;fill:#FD8030;}
	.st17{opacity:0.5;fill-rule:evenodd;clip-rule:evenodd;fill:#80C41C;}
	.st18{opacity:0.34;fill-rule:evenodd;clip-rule:evenodd;fill:#FF0000;}
	
		.st19{fill-rule:evenodd;clip-rule:evenodd;fill:none;stroke:#00A0C6;stroke-width:1.2;stroke-linecap:round;stroke-linejoin:round;stroke-miterlimit:10;stroke-dasharray:4;}
	
		.st20{fill-rule:evenodd;clip-rule:evenodd;fill:none;stroke:#237D26;stroke-width:1.2;stroke-linecap:round;stroke-linejoin:round;stroke-miterlimit:10;stroke-dasharray:4;}
	
		.st21{fill:none;stroke:#237D26;stroke-width:1.2;stroke-linecap:round;stroke-linejoin:round;stroke-miterlimit:10;stroke-dasharray:4;}
	.st22{fill:#237D26;}
	.st23{fill:#00A0C6;}
	
		.st24{fill-rule:evenodd;clip-rule:evenodd;fill:none;stroke:#E60000;stroke-width:3;stroke-linecap:round;stroke-linejoin:round;stroke-miterlimit:10;}
	.st25{opacity:0.5;}
</style>
<g>
	<path id="XMLID_87_" class="st13" d="M259,177c-0.1,0-0.2,0-0.4,0l-10.6,0c-2.7,0-4-0.4-4.6-1.4c-0.7-1.2,0.1-2.6,1.1-4.5
		c0.2-0.4,0.5-0.9,0.7-1.3c0.7-1.4,1.9-2.5,2.8-3.2c7.8-15.9,6.3-25.3-0.4-38c-2.9,12.7-3.7,18.2-4.6,26.5c0,0.2-0.1,0.3-0.2,0.5
		c-3.1,3.3-4.4,6-4.7,6.7c0.3,2,0.4,3.5,0.3,4.8c-0.3,4-0.6,4.6-3.9,4.6c0,0-0.1,0-0.1,0l-10.6,0c-2.7,0-4-0.4-4.5-1.4
		c-0.6-1.2,0.3-2.6,1.6-4.5c0.3-0.4,0.6-0.9,0.9-1.4c0.9-1.4,2.2-2.5,3.2-3.1c8-13.1,10.7-25.9,8-37.9c-0.6-2.8-2.5-7.1-3.1-8.6
		c-2,0.1-8.9,0.4-12.5,0.3c-3.4-0.1-6.1,1.6-9.9,4.1c-0.6,0.4-1.2,0.8-1.9,1.2c-4.2,2.7-7.6,2.2-14.5,1.2c-1.6-0.2-3.4-0.5-5.4-0.7
		c-10.4-1.3-25.2-5.7-29.5-7.2c-1.9-0.6-6.5-0.3-12.4,1c-0.2,1-0.3,2.1-0.5,3.1c-0.7,4.6-1.3,8.9-1.7,12.3c-0.2,1.8-0.6,3.3-1,4.7
		c-0.4,1.3-0.7,2.5-0.8,4c-0.5,5.6-0.7,11-0.6,16.5c0,0.2-0.1,0.4-0.2,0.5c-2.7,3.3-3.7,5.9-3.9,6.6c0.5,2,0.8,3.5,0.8,4.8
		c0.1,2.2,0.1,3.3-0.6,4.1c-0.6,0.6-1.5,0.6-3,0.6l-10.6,0c-2.7,0-4-0.4-4.6-1.4c-0.7-1.2,0.1-2.6,1.1-4.5c0.2-0.4,0.5-0.9,0.7-1.3
		c0.7-1.4,1.9-2.5,2.8-3.2c3.8-7.6,5.5-14,5.8-20.8c0-1.2-0.7-2.8-1.5-4.3c-0.7-1.3-1.4-2.7-1.5-4c-0.8-5.7-2.1-11.8-3.6-17
		c-0.8,0.1-1.5,0.4-2.4,1c-0.3,2-0.6,4.1-0.9,6.2c-0.7,4.7-1.4,9.5-1.7,12.8c-0.2,1.8-0.6,3.3-1,4.7c-0.4,1.3-0.7,2.5-0.8,4
		c-0.5,5.6-0.7,11-0.6,16.5c0,0.2-0.1,0.4-0.2,0.5c-2.7,3.3-3.7,5.9-3.9,6.6c0.5,2,0.8,3.5,0.8,4.8c0.1,2.2,0.1,3.3-0.6,4.1
		c-0.6,0.6-1.5,0.6-3,0.6l-10.6,0c-2.7,0-4-0.4-4.6-1.4c-0.7-1.2,0.1-2.6,1.1-4.5c0.2-0.4,0.5-0.9,0.7-1.3c0.7-1.4,1.9-2.5,2.8-3.2
		c3.7-7.6,5.5-14,5.8-20.8c0-1.2-0.7-2.8-1.5-4.3c-0.7-1.3-1.4-2.7-1.5-4c-1.1-8.4-3.4-15.9-6.5-24.5C82,108.4,76.6,100.6,71,92.4
		c-4.8-6.9-9.7-14.1-18.1-20.6c-8.8-0.3-15.9-1.3-21-3.1c-3.1-0.7-7.2,0-12.2,2.3c0,0,0,0-0.1,0c-3.9,1.4-6.7,1.5-8.4,0.3
		c-1-0.7-1.6-1.8-1.8-3.3c-1.2,0-2-0.2-2.6-0.7c-0.4-0.4-0.6-0.8-0.7-1.4c-2.5-2.6-3.6-5.3-3.4-8.1c-0.9-1.6-1.1-3.1-0.5-4.4
		c0.8-1.8,3-3.1,6.8-3.9c1.9-0.9,3.5-2.2,4.6-4c0,0,0-0.1,0.1-0.1c4.6-5.3,7.8-8.5,9.7-9.7c1.7-1.1,2.4-2.5,2.2-4.1
		c0-0.2,0-0.4,0.1-0.5c2.3-3.7,4.7-6.2,7.2-7.4c0.6-0.7,1.2-1.5,1.8-2.2C30.5,17.4,27.9,12,27,5.2c-0.4-2.5-0.5-3.5,0.4-3.7
		C28.3,1.2,28.9,2,30,4.6c1.3,2.8,3.3,5.5,6,7.9c-1-2.3-1.7-4.9-2-7.7c-0.4-2.2-0.5-3.3,0.4-3.6c0.9-0.3,1.4,0.5,2.5,2.9
		c1.6,3.6,4.4,6.8,8.4,9.7c1,0.1,2.1,0.3,3.2,0.7c0.2,0.1,0.3,0.2,0.4,0.3c0.4,0.6,0.8,1.1,1.3,1.7c1.1,1.2,3.8,1.8,4.5,1.8
		c0.7-0.4,4.2-2.8,6-5c2.1-2.4,6.6-5.1,7.9-5.3c0.6-0.1,1,0.1,1.3,0.4c0.6,0.6,0.7,1.8,0.2,5c-0.4,2.9-2.6,7.2-3.7,9.2
		c0.7,0.1,1.8,0.1,3.1,0c3.4-0.3,7.2-0.7,11.3-1.2c15.5-1.8,34.7-4.1,49.4,0.7c13.3,4.4,39.6,1.6,63.6-1.6
		c7.3-2.5,15.4-4.2,23.5-4.8c12.1-2,36.7-0.9,46.4,5.1c12.9,8.1,12.9,22.3,12.8,36.1c0,2.3,0,4.6,0,6.9c0.2,9.6,2.3,21.9,4.7,28
		c8,6.7,19.9,16.9,7.1,36.9c-0.2,0.3-0.5,0.4-0.8,0.4c-0.3-0.1-0.6-0.3-0.6-0.6c-0.7-3.7-3.2-6.9-5.8-10.4
		c-4.8-6.3-10.3-13.5-6.4-25.4c-2.3-6.1-4-18.6-4.1-28.8c0-1.3,0-2.6,0-3.9c0.1-12.5,0.1-26.6-11.6-33c7,7.4,8.9,18.1,5.6,31.2
		c-0.7,2.6-1.5,5.1-2.3,7.6c-0.9,2.7-1.8,5.6-2.5,8.5c-4.2,18.3-1.2,32.1,9,41.2c0.2,0.2,0.3,0.4,0.3,0.7
		c-2.5,18.8-3.6,33.7-3.5,44.2c0,0.2-0.1,0.4-0.2,0.5c-2.7,3.3-3.7,5.9-3.9,6.6c0.5,2,0.8,3.5,0.8,4.8c0.1,2.2,0.1,3.3-0.6,4.1
		C261.1,176.9,260.3,177,259,177z"/>
	<path id="XMLID_103_" class="st14" d="M218.2,15.7c0,0-3.9,4.4-5.1,9s-2.3,9.5-2.6,13.4c-0.2,2.8-0.3,10-0.3,14.5
		c0,1.5-1.7,2.2-2.8,1.2c-2.9-2.6-6.2-6-8.8-9.1c-4.1-5.1-6-12.1-6.1-17c0-3.1,0.4-5.1,0.7-6.2c0.1-0.6,0.6-1,1.1-1.2
		c1.7-0.5,5.4-1.6,8-2.2c3.1-0.7,12.4-2.2,13.4-2.4c0.1,0,0.1,0,0.2,0L218.2,15.7z"/>
</g>
</svg>
